<svg width="496" height="496" viewBox="0 0 496 496" fill="none" xmlns="http://www.w3.org/2000/svg">
<path d="M200 160H248V400H200V160Z" fill="#F0BC5E"/>
<path d="M384 256H440V304H384V256Z" fill="#F0BC5E"/>
<path d="M152 496H24C10.7695 496 0 485.23 0 472V408C0 394.77 10.7695 384 24 384H78.1133L152 347.055V384C165.23 384 176 394.77 176 408V472C176 485.23 165.23 496 152 496Z" fill="#F0BC5E"/>
<path d="M456 216H440C378.785 216 319.504 198.055 268.559 164.098L250.426 152H192V223.039L128.359 133.938L115.344 143.23L192 250.559V256H151.543V272H192V408H250.426L268.566 395.902C298 376.281 330.273 362.191 364.047 353.633C366.465 356.574 368 359.273 368 364.023C368 369.984 365.617 372.664 362.023 376.719C357.793 381.48 352 387.992 352 400.039C352 412.078 357.793 418.594 362.023 423.352C365.625 427.406 368 430.078 368 436.039C368 441.984 365.625 444.656 362.023 448.695C357.801 453.457 352 459.961 352 472C352 485.23 362.77 496 376 496H408C421.23 496 432 485.23 432 472V344.297C434.672 344.223 437.32 344 440 344H456C478.055 344 496 326.055 496 304V256C496 233.945 478.055 216 456 216V216ZM368 336.062V312H432V328.297C410.32 328.824 388.887 331.328 368 336.062ZM432 296H368V264H432V296ZM432 248H368V223.938C388.887 228.672 410.32 231.176 432 231.703V248ZM259.688 382.594L245.574 392H208V168H245.574L259.688 177.406C288.281 196.473 319.426 210.574 352 219.734V340.273C319.426 349.426 288.281 363.527 259.688 382.594ZM416 472C416 476.414 412.414 480 408 480H376C371.586 480 368 476.414 368 472C368 466.055 370.375 463.375 373.977 459.336C378.207 454.574 384 448.07 384 436.039C384 424 378.207 417.488 373.977 412.727C370.375 408.672 368 406 368 400.039C368 394.078 370.383 391.398 373.977 387.344C378.207 382.586 384 376.07 384 364.023C384 358.145 382.617 353.594 380.711 349.902C392.344 347.633 404.105 345.879 416 344.969V472ZM480 304C480 317.23 469.23 328 456 328H448V232H456C469.23 232 480 242.77 480 256V304Z" fill="#000C78"/>
<path d="M80 160C35.8867 160 0 124.113 0 80C0 35.8867 35.8867 0 80 0C124.113 0 160 35.8867 160 80C160 124.113 124.113 160 80 160Z" fill="#F0BC5E"/>
<path d="M80 336C35.8867 336 0 300.113 0 256C0 211.887 35.8867 176 80 176C124.113 176 160 211.887 160 256C160 300.113 124.113 336 80 336Z" fill="#F0BC5E"/>
<path d="M48 126.945V33.0547L118.426 80L48 126.945ZM64 62.9453V97.0547L89.5742 80L64 62.9453Z" fill="#000C78"/>
<path d="M80 288C66.7695 288 56 277.23 56 264C56 250.77 66.7695 240 80 240C93.2305 240 104 250.77 104 264C104 277.23 93.2305 288 80 288ZM80 256C75.5859 256 72 259.586 72 264C72 268.414 75.5859 272 80 272C84.4141 272 88 268.414 88 264C88 259.586 84.4141 256 80 256Z" fill="#000C78"/>
<path d="M136 264H120C120 241.945 102.055 224 80 224C57.9453 224 40 241.945 40 264H24C24 233.129 49.1289 208 80 208C110.871 208 136 233.129 136 264Z" fill="#000C78"/>
<path d="M128 448H144V464H128V448Z" fill="#000C78"/>
<path d="M32 448H112V464H32V448Z" fill="#000C78"/>
<path d="M32 416H144V432H32V416Z" fill="#000C78"/>
</svg>
