<svg height="512pt" viewBox="0 0 512 512" width="512pt" xmlns="http://www.w3.org/2000/svg"><path d="m512 120v392h-512v-392l39.300781-30h433.398438zm0 0" fill="#f2f2fc"/><path d="m512 120v392h-256v-422h216.699219zm0 0" fill="#d8d8fc"/><path d="m271 181h196v30h-196zm0 0" fill="#a3a3d1"/><path d="m271 241h196v30h-196zm0 0" fill="#a3a3d1"/><path d="m45 301h422v30h-422zm0 0" fill="#d8d8fc"/><path d="m45 361h196v30h-196zm0 0" fill="#d8d8fc"/><path d="m45 421h196v30h-196zm0 0" fill="#d8d8fc"/><path d="m467 451h-196v-90h196zm0 0" fill="#a3a3d1"/><path d="m256 301h211v30h-211zm0 0" fill="#a3a3d1"/><path d="m45 181v90h196v-90zm0 0" fill="#d8d8fc"/><path d="m512 0h-151l-30 69.375 30 50.625h151zm0 0" fill="#47568c"/><path d="m0 0h361v120h-361zm0 0" fill="#4bb9ec"/><path d="m256 0h105v120h-105zm0 0" fill="#0095ff"/><g fill="#f2f2fc"><path d="m60 45h30v30h-30zm0 0"/><path d="m121 45h30v30h-30zm0 0"/><path d="m181 45h30v30h-30zm0 0"/></g></svg>