<svg width="496" height="496" viewBox="0 0 496 496" fill="none" xmlns="http://www.w3.org/2000/svg">
<path d="M176 120C176 150.93 150.93 176 120 176C89.0703 176 64 150.93 64 120C64 89.0703 89.0703 64 120 64C150.93 64 176 89.0703 176 120Z" fill="#F0BC5E"/>
<path d="M224 40H352V72H224V40Z" fill="#F0BC5E"/>
<path d="M128 352V328H32V464H352V352H128Z" fill="#F0BC5E"/>
<path d="M496 236.414L396.68 147.762L436.695 110.105C443.879 103.336 448 93.8008 448 83.9297C448 64.1211 431.879 48 411.273 48C401.922 48 393.062 51.5742 386.328 58.0703L384 60.3125V0H0V496H384V295.633L496 393.633V236.414ZM179.961 287.273L200.734 308.047L171.656 316.352L179.961 287.273ZM216.105 300.793L187.414 272.105L198.359 261.551C203.504 267.871 211.238 272 220 272H245.961L216.105 300.793ZM196.977 228.129C193.969 225.414 192 221.617 192 217.375C192 213.527 193.559 209.754 196.281 207.031L263.594 139.719C271.145 132.168 281.191 128 291.879 128H313.809L222.551 216H220C210.457 216 202.039 220.816 196.977 228.129ZM363.246 102.559L391.426 130.734L300.832 216H245.602L363.246 102.559ZM397.441 69.5859C401.168 65.9844 406.09 64 412.07 64C423.063 64 432 72.9375 432 83.9297C432 89.4062 429.711 94.6953 425.727 98.4414L403.078 119.762L374.77 91.4492L397.441 69.5859ZM368 480H16V16H368V75.7422L330.398 112H291.879C276.922 112 262.855 117.832 252.281 128.406L184.969 195.719C179.184 201.504 176 209.191 176 217.375C176 228.727 182.367 238.91 192.016 244.191C192.016 244.586 192.113 244.945 192.129 245.328L168.895 267.734L148.352 339.648L220.121 319.145L269.008 272H356.992L368 281.633V480ZM480 358.367L363.008 256H220C213.383 256 208 250.617 208 244C208 237.383 213.383 232 220 232H307.168L384.984 158.77L480 243.586V358.367Z" fill="#000C78"/>
<path d="M32 320H128V336H32V320Z" fill="#000C78"/>
<path d="M32 352H352V368H32V352Z" fill="#000C78"/>
<path d="M64 384H352V400H64V384Z" fill="#000C78"/>
<path d="M32 384H48V400H32V384Z" fill="#000C78"/>
<path d="M32 416H352V432H32V416Z" fill="#000C78"/>
<path d="M336 448H352V464H336V448Z" fill="#000C78"/>
<path d="M32 448H320V464H32V448Z" fill="#000C78"/>
<path d="M120 208C168.52 208 208 168.52 208 120C208 71.4805 168.52 32 120 32C71.4805 32 32 71.4805 32 120C32 168.52 71.4805 208 120 208ZM120 192C99.3594 192 80.7773 183.223 67.6406 169.273L121.039 129.223L182.055 156.344C169.535 177.633 146.441 192 120 192ZM192 120C192 127.574 190.809 134.879 188.625 141.742L128 114.801V48.4727C163.945 52.4648 192 83 192 120ZM112 48.4727V116L58.0312 156.48C51.7031 145.77 48 133.32 48 120C48 83 76.0547 52.4648 112 48.4727Z" fill="#000C78"/>
<path d="M224 32H352V48H224V32Z" fill="#000C78"/>
<path d="M224 64H352V80H224V64Z" fill="#000C78"/>
</svg>
