<svg width="250" height="250" viewBox="0 0 250 250" fill="none" xmlns="http://www.w3.org/2000/svg">
<rect width="250" height="250" rx="35" fill="white"/>
<path d="M177.536 51.28C177.536 49.84 178.928 49.12 181.712 49.12C184.592 49.12 187.52 50.704 190.496 53.872C193.472 56.944 194.96 60.496 194.96 64.528C194.96 79.312 183.968 86.704 161.984 86.704C153.152 86.704 144.992 85.936 137.504 84.4V153.376C137.504 163.456 135.584 171.472 131.744 177.424C128 183.376 122.288 186.352 114.608 186.352C107.024 186.352 101.312 184.576 97.472 181.024C93.632 177.568 91.712 172.96 91.712 167.2C91.712 159.808 94.112 156.112 98.912 156.112C100.064 156.112 101.072 156.4 101.936 156.976C102.8 157.552 103.52 158.368 104.096 159.424C103.328 161.44 102.944 164.416 102.944 168.352C102.944 172.288 103.952 175.312 105.968 177.424C108.08 179.44 110.72 180.448 113.888 180.448C120.512 180.448 123.968 174.304 124.256 162.016V81.232C117.92 79.408 111.776 77.152 105.824 74.464C99.584 81.952 90.128 85.696 77.456 85.696C72.272 85.696 68.048 84.592 64.784 82.384C61.52 80.08 59.888 76.624 59.888 72.016C59.888 62.8 65.648 58.192 77.168 58.192C85.424 58.192 97.472 61.264 113.312 67.408C119.168 69.616 126.512 71.68 135.344 73.6C144.272 75.52 153.344 76.48 162.56 76.48C171.776 76.48 178.064 75.472 181.424 73.456C184.784 71.44 186.464 68.464 186.464 64.528C186.464 62.128 185.792 60.064 184.448 58.336C183.2 56.512 181.904 55.312 180.56 54.736L178.688 53.872C177.92 53.296 177.536 52.432 177.536 51.28ZM77.312 79.072C87.584 79.072 94.736 76.528 98.768 71.44C88.496 66.928 81.536 64.672 77.888 64.672C74.336 64.672 71.792 65.344 70.256 66.688C68.624 67.936 67.808 69.568 67.808 71.584C67.808 76.576 70.976 79.072 77.312 79.072Z" fill="#1D48F7"/>
<path d="M190.496 53.872L184.665 59.3494L184.707 59.3942L184.75 59.4384L190.496 53.872ZM137.504 84.4L139.112 76.5632L129.504 74.5924V84.4H137.504ZM131.744 177.424L125.022 173.087L124.997 173.126L124.972 173.164L131.744 177.424ZM97.472 181.024L102.904 175.151L102.864 175.114L102.824 175.078L97.472 181.024ZM101.936 156.976L106.374 150.32L106.374 150.32L101.936 156.976ZM104.096 159.424L111.572 162.272L112.884 158.828L111.119 155.593L104.096 159.424ZM105.968 177.424L100.181 182.948L100.31 183.082L100.444 183.211L105.968 177.424ZM124.256 162.016L132.254 162.203L132.256 162.11V162.016H124.256ZM124.256 81.232H132.256V75.2101L126.469 73.5442L124.256 81.232ZM105.824 74.464L109.117 67.173L103.573 64.6693L99.6782 69.3425L105.824 74.464ZM64.784 82.384L60.1705 88.9197L60.2356 88.9657L60.3015 89.0103L64.784 82.384ZM113.312 67.408L110.419 74.8666L110.454 74.8802L110.49 74.8936L113.312 67.408ZM135.344 73.6L133.645 81.4174L133.653 81.4193L133.662 81.4212L135.344 73.6ZM181.424 73.456L185.54 80.3159L185.54 80.3159L181.424 73.456ZM184.448 58.336L177.846 62.8535L177.983 63.0549L178.133 63.2475L184.448 58.336ZM180.56 54.736L177.208 61.9997L177.307 62.0458L177.409 62.0891L180.56 54.736ZM178.688 53.872L173.888 60.272L174.566 60.7805L175.336 61.1357L178.688 53.872ZM98.768 71.44L105.038 76.4087L111.476 68.2843L101.985 64.1155L98.768 71.44ZM70.256 66.688L75.1156 73.0429L75.3253 72.8825L75.524 72.7086L70.256 66.688ZM185.536 51.28C185.536 52.2654 185.278 53.4944 184.522 54.6686C183.789 55.8057 182.877 56.4442 182.255 56.7657C181.246 57.2879 180.75 57.12 181.712 57.12V41.12C179.89 41.12 177.306 41.3121 174.905 42.5543C173.587 43.2358 172.153 44.3243 171.072 46.0014C169.968 47.7155 169.536 49.5745 169.536 51.28H185.536ZM181.712 57.12C181.47 57.12 182.435 56.9751 184.665 59.3494L196.327 48.3946C192.605 44.4329 187.714 41.12 181.712 41.12V57.12ZM184.75 59.4384C186.377 61.1182 186.96 62.7092 186.96 64.528H202.96C202.96 58.2828 200.567 52.7698 196.242 48.3056L184.75 59.4384ZM186.96 64.528C186.96 69.6192 185.253 72.5033 182.252 74.5215C178.687 76.9188 172.331 78.704 161.984 78.704V94.704C173.621 94.704 183.753 92.7932 191.18 87.7985C199.171 82.4246 202.96 74.2208 202.96 64.528H186.96ZM161.984 78.704C153.611 78.704 145.996 77.9755 139.112 76.5632L135.896 92.2368C143.988 93.8965 152.693 94.704 161.984 94.704V78.704ZM129.504 84.4V153.376H145.504V84.4H129.504ZM129.504 153.376C129.504 162.539 127.745 168.866 125.022 173.087L138.466 181.761C143.423 174.078 145.504 164.373 145.504 153.376H129.504ZM124.972 173.164C122.847 176.543 119.841 178.352 114.608 178.352V194.352C124.735 194.352 133.153 190.209 138.516 181.684L124.972 173.164ZM114.608 178.352C108.141 178.352 104.718 176.829 102.904 175.151L92.0397 186.897C97.9059 192.323 105.907 194.352 114.608 194.352V178.352ZM102.824 175.078C100.874 173.323 99.712 170.982 99.712 167.2H83.712C83.712 174.938 86.3903 181.813 92.1203 186.97L102.824 175.078ZM99.712 167.2C99.712 165.76 99.8312 164.733 99.9809 164.041C100.132 163.344 100.277 163.155 100.222 163.241C100.131 163.381 99.8666 163.69 99.4154 163.922C98.9927 164.139 98.7472 164.112 98.912 164.112V148.112C94.0902 148.112 89.6278 150.176 86.8025 154.527C84.3647 158.281 83.712 162.894 83.712 167.2H99.712ZM98.912 164.112C98.8174 164.112 98.6117 164.099 98.3342 164.02C98.0503 163.939 97.7616 163.808 97.4984 163.632L106.374 150.32C104.054 148.773 101.464 148.112 98.912 148.112V164.112ZM97.4984 163.632C97.326 163.517 97.2023 163.4 97.1253 163.313C97.0514 163.229 97.0411 163.197 97.0728 163.255L111.119 155.593C110.021 153.581 108.475 151.72 106.374 150.32L97.4984 163.632ZM96.6201 156.576C95.3287 159.966 94.944 164.109 94.944 168.352H110.944C110.944 164.723 111.327 162.914 111.572 162.272L96.6201 156.576ZM94.944 168.352C94.944 173.614 96.309 178.891 100.181 182.948L111.755 171.9C111.595 171.733 110.944 170.962 110.944 168.352H94.944ZM100.444 183.211C104.177 186.774 108.854 188.448 113.888 188.448V172.448C112.586 172.448 111.983 172.106 111.492 171.637L100.444 183.211ZM113.888 188.448C120.311 188.448 125.388 185.154 128.421 179.762C131.105 174.989 132.099 168.816 132.254 162.203L116.258 161.829C116.125 167.504 115.247 170.547 114.475 171.918C114.153 172.492 113.98 172.537 114.098 172.465C114.241 172.378 114.259 172.448 113.888 172.448V188.448ZM132.256 162.016V81.232H116.256V162.016H132.256ZM126.469 73.5442C120.499 71.8254 114.715 69.7015 109.117 67.173L102.531 81.755C108.837 84.6025 115.341 86.9906 122.043 88.9198L126.469 73.5442ZM99.6782 69.3425C95.3881 74.4907 88.519 77.696 77.456 77.696V93.696C91.737 93.696 103.78 89.4133 111.97 79.5855L99.6782 69.3425ZM77.456 77.696C73.3726 77.696 70.8477 76.8274 69.2665 75.7577L60.3015 89.0103C65.2483 92.3566 71.1714 93.696 77.456 93.696V77.696ZM69.3975 75.8483C68.6062 75.2897 67.888 74.4834 67.888 72.016H51.888C51.888 78.7646 54.4338 84.8703 60.1705 88.9197L69.3975 75.8483ZM67.888 72.016C67.888 69.1736 68.6878 68.3092 69.2056 67.8949C70.0642 67.208 72.2627 66.192 77.168 66.192V50.192C70.5533 50.192 64.1118 51.48 59.2104 55.401C53.9682 59.5948 51.888 65.6423 51.888 72.016H67.888ZM77.168 66.192C83.8545 66.192 94.7349 68.7831 110.419 74.8666L116.205 59.9494C100.209 53.7449 86.9935 50.192 77.168 50.192V66.192ZM110.49 74.8936C116.833 77.2852 124.583 79.4474 133.645 81.4174L137.043 65.7826C128.441 63.9126 121.503 61.9468 116.134 59.9224L110.49 74.8936ZM133.662 81.4212C143.148 83.4611 152.784 84.48 162.56 84.48V68.48C153.904 68.48 145.396 67.5788 137.026 65.7788L133.662 81.4212ZM162.56 84.48C167.422 84.48 171.752 84.2167 175.454 83.6231C179.054 83.046 182.608 82.0751 185.54 80.3159L177.308 66.5961C176.88 66.8529 175.61 67.394 172.922 67.8248C170.336 68.2393 166.914 68.48 162.56 68.48V84.48ZM185.54 80.3159C191.323 76.8462 194.464 71.2585 194.464 64.528H178.464C178.464 65.3295 178.303 65.6629 178.237 65.7792C178.173 65.8939 177.977 66.1947 177.308 66.5961L185.54 80.3159ZM194.464 64.528C194.464 60.5308 193.306 56.6938 190.763 53.4245L178.133 63.2475C178.278 63.4342 178.464 63.7252 178.464 64.528H194.464ZM191.05 53.8185C189.353 51.3378 186.994 48.7895 183.711 47.3828L177.409 62.0891C177.086 61.9509 176.992 61.8341 177.105 61.9381C177.221 62.0458 177.479 62.3172 177.846 62.8535L191.05 53.8185ZM183.912 47.4723L182.04 46.6083L175.336 61.1357L177.208 61.9997L183.912 47.4723ZM183.488 47.472C184.178 47.9898 184.763 48.7077 185.134 49.5429C185.485 50.3317 185.536 50.9756 185.536 51.28H169.536C169.536 54.3839 170.692 57.875 173.888 60.272L183.488 47.472ZM77.312 87.072C88.5989 87.072 98.7807 84.3047 105.038 76.4087L92.498 66.4713C90.6913 68.7512 86.5691 71.072 77.312 71.072V87.072ZM101.985 64.1155C96.7184 61.802 92.1418 59.9956 88.3108 58.7538C84.667 57.5727 81.0244 56.672 77.888 56.672V72.672C78.3996 72.672 80.061 72.8993 83.3772 73.9742C86.5062 74.9884 90.5456 76.566 95.5507 78.7645L101.985 64.1155ZM77.888 56.672C73.704 56.672 68.7316 57.3917 64.988 60.6674L75.524 72.7086C75.1349 73.0491 74.9465 73.0197 75.3591 72.9107C75.7783 72.8 76.5782 72.672 77.888 72.672V56.672ZM65.3964 60.3331C61.8294 63.0608 59.808 67.0209 59.808 71.584H75.808C75.808 71.6858 75.7791 72.0184 75.5754 72.4257C75.3742 72.8281 75.1435 73.0215 75.1156 73.0429L65.3964 60.3331ZM59.808 71.584C59.808 75.8884 61.2697 80.3613 65.233 83.4839C68.833 86.3203 73.3104 87.072 77.312 87.072V71.072C76.2271 71.072 75.5516 70.9624 75.1861 70.8664C74.8342 70.774 74.8975 70.729 75.135 70.9161C75.2538 71.0096 75.3858 71.1383 75.5091 71.3001C75.6321 71.4617 75.7166 71.6172 75.7697 71.7429C75.8745 71.9905 75.808 71.9985 75.808 71.584H59.808Z" fill="#1D48F7"/>
</svg>
