<svg width="1104" height="250" viewBox="0 0 1104 250" fill="none" xmlns="http://www.w3.org/2000/svg">
<rect width="250" height="250" rx="35" fill="white"/>
<path d="M177.536 48.28C177.536 46.84 178.928 46.12 181.712 46.12C184.592 46.12 187.52 47.704 190.496 50.872C193.472 53.944 194.96 57.496 194.96 61.528C194.96 76.312 183.968 83.704 161.984 83.704C153.152 83.704 144.992 82.936 137.504 81.4V150.376C137.504 160.456 135.584 168.472 131.744 174.424C128 180.376 122.288 183.352 114.608 183.352C107.024 183.352 101.312 181.576 97.472 178.024C93.632 174.568 91.712 169.96 91.712 164.2C91.712 156.808 94.112 153.112 98.912 153.112C100.064 153.112 101.072 153.4 101.936 153.976C102.8 154.552 103.52 155.368 104.096 156.424C103.328 158.44 102.944 161.416 102.944 165.352C102.944 169.288 103.952 172.312 105.968 174.424C108.08 176.44 110.72 177.448 113.888 177.448C120.512 177.448 123.968 171.304 124.256 159.016V78.232C117.92 76.408 111.776 74.152 105.824 71.464C99.584 78.952 90.128 82.696 77.456 82.696C72.272 82.696 68.048 81.592 64.784 79.384C61.52 77.08 59.888 73.624 59.888 69.016C59.888 59.8 65.648 55.192 77.168 55.192C85.424 55.192 97.472 58.264 113.312 64.408C119.168 66.616 126.512 68.68 135.344 70.6C144.272 72.52 153.344 73.48 162.56 73.48C171.776 73.48 178.064 72.472 181.424 70.456C184.784 68.44 186.464 65.464 186.464 61.528C186.464 59.128 185.792 57.064 184.448 55.336C183.2 53.512 181.904 52.312 180.56 51.736L178.688 50.872C177.92 50.296 177.536 49.432 177.536 48.28ZM77.312 76.072C87.584 76.072 94.736 73.528 98.768 68.44C88.496 63.928 81.536 61.672 77.888 61.672C74.336 61.672 71.792 62.344 70.256 63.688C68.624 64.936 67.808 66.568 67.808 68.584C67.808 73.576 70.976 76.072 77.312 76.072Z" fill="white"/>
<path d="M190.496 50.872L184.665 56.3494L184.707 56.3942L184.75 56.4384L190.496 50.872ZM137.504 81.4L139.112 73.5632L129.504 71.5924V81.4H137.504ZM131.744 174.424L125.022 170.087L124.997 170.126L124.972 170.164L131.744 174.424ZM97.472 178.024L102.904 172.151L102.864 172.114L102.824 172.078L97.472 178.024ZM101.936 153.976L106.374 147.32H106.374L101.936 153.976ZM104.096 156.424L111.572 159.272L112.884 155.828L111.119 152.593L104.096 156.424ZM105.968 174.424L100.181 179.948L100.31 180.082L100.444 180.211L105.968 174.424ZM124.256 159.016L132.254 159.203L132.256 159.11V159.016H124.256ZM124.256 78.232H132.256V72.2101L126.469 70.5442L124.256 78.232ZM105.824 71.464L109.117 64.173L103.573 61.6693L99.6782 66.3425L105.824 71.464ZM64.784 79.384L60.1705 85.9197L60.2356 85.9657L60.3015 86.0103L64.784 79.384ZM113.312 64.408L110.419 71.8666L110.454 71.8802L110.49 71.8936L113.312 64.408ZM135.344 70.6L133.645 78.4174L133.653 78.4193L133.662 78.4212L135.344 70.6ZM181.424 70.456L185.54 77.3159L185.54 77.3159L181.424 70.456ZM184.448 55.336L177.846 59.8535L177.983 60.0549L178.133 60.2475L184.448 55.336ZM180.56 51.736L177.208 58.9997L177.307 59.0458L177.409 59.0891L180.56 51.736ZM178.688 50.872L173.888 57.272L174.566 57.7805L175.336 58.1357L178.688 50.872ZM98.768 68.44L105.038 73.4087L111.476 65.2843L101.985 61.1155L98.768 68.44ZM70.256 63.688L75.1156 70.0429L75.3253 69.8825L75.524 69.7086L70.256 63.688ZM185.536 48.28C185.536 49.2654 185.278 50.4944 184.522 51.6686C183.789 52.8057 182.877 53.4442 182.255 53.7657C181.246 54.2879 180.75 54.12 181.712 54.12V38.12C179.89 38.12 177.306 38.3121 174.905 39.5543C173.587 40.2358 172.153 41.3243 171.072 43.0014C169.968 44.7155 169.536 46.5745 169.536 48.28H185.536ZM181.712 54.12C181.47 54.12 182.435 53.9751 184.665 56.3494L196.327 45.3946C192.605 41.4329 187.714 38.12 181.712 38.12V54.12ZM184.75 56.4384C186.377 58.1182 186.96 59.7092 186.96 61.528H202.96C202.96 55.2828 200.567 49.7698 196.242 45.3056L184.75 56.4384ZM186.96 61.528C186.96 66.6192 185.253 69.5033 182.252 71.5215C178.687 73.9188 172.331 75.704 161.984 75.704V91.704C173.621 91.704 183.753 89.7932 191.18 84.7985C199.171 79.4246 202.96 71.2208 202.96 61.528H186.96ZM161.984 75.704C153.611 75.704 145.996 74.9755 139.112 73.5632L135.896 89.2368C143.988 90.8965 152.693 91.704 161.984 91.704V75.704ZM129.504 81.4V150.376H145.504V81.4H129.504ZM129.504 150.376C129.504 159.539 127.745 165.866 125.022 170.087L138.466 178.761C143.423 171.078 145.504 161.373 145.504 150.376H129.504ZM124.972 170.164C122.847 173.543 119.841 175.352 114.608 175.352V191.352C124.735 191.352 133.153 187.209 138.516 178.684L124.972 170.164ZM114.608 175.352C108.141 175.352 104.718 173.829 102.904 172.151L92.0397 183.897C97.9059 189.323 105.907 191.352 114.608 191.352V175.352ZM102.824 172.078C100.874 170.323 99.712 167.982 99.712 164.2H83.712C83.712 171.938 86.3903 178.813 92.1203 183.97L102.824 172.078ZM99.712 164.2C99.712 162.76 99.8312 161.733 99.9809 161.041C100.132 160.344 100.277 160.155 100.222 160.241C100.131 160.381 99.8666 160.69 99.4154 160.922C98.9927 161.139 98.7472 161.112 98.912 161.112V145.112C94.0903 145.112 89.6278 147.176 86.8025 151.527C84.3647 155.281 83.712 159.894 83.712 164.2H99.712ZM98.912 161.112C98.8174 161.112 98.6117 161.099 98.3342 161.02C98.0503 160.939 97.7616 160.808 97.4984 160.632L106.374 147.32C104.054 145.773 101.464 145.112 98.912 145.112V161.112ZM97.4984 160.632C97.326 160.517 97.2023 160.4 97.1253 160.313C97.0514 160.229 97.0411 160.197 97.0728 160.255L111.119 152.593C110.021 150.581 108.475 148.72 106.374 147.32L97.4984 160.632ZM96.6201 153.576C95.3287 156.966 94.944 161.109 94.944 165.352H110.944C110.944 161.723 111.327 159.914 111.572 159.272L96.6201 153.576ZM94.944 165.352C94.944 170.614 96.309 175.891 100.181 179.948L111.755 168.9C111.595 168.733 110.944 167.962 110.944 165.352H94.944ZM100.444 180.211C104.177 183.774 108.854 185.448 113.888 185.448V169.448C112.586 169.448 111.983 169.106 111.492 168.637L100.444 180.211ZM113.888 185.448C120.311 185.448 125.388 182.154 128.421 176.762C131.105 171.989 132.099 165.816 132.254 159.203L116.258 158.829C116.125 164.504 115.247 167.547 114.475 168.918C114.153 169.492 113.98 169.537 114.098 169.465C114.241 169.378 114.259 169.448 113.888 169.448V185.448ZM132.256 159.016V78.232H116.256V159.016H132.256ZM126.469 70.5442C120.499 68.8254 114.715 66.7015 109.117 64.173L102.531 78.755C108.837 81.6025 115.341 83.9906 122.043 85.9198L126.469 70.5442ZM99.6782 66.3425C95.3881 71.4907 88.519 74.696 77.456 74.696V90.696C91.737 90.696 103.78 86.4133 111.97 76.5855L99.6782 66.3425ZM77.456 74.696C73.3726 74.696 70.8477 73.8274 69.2665 72.7577L60.3015 86.0103C65.2483 89.3566 71.1714 90.696 77.456 90.696V74.696ZM69.3975 72.8483C68.6062 72.2897 67.888 71.4834 67.888 69.016H51.888C51.888 75.7646 54.4338 81.8703 60.1705 85.9197L69.3975 72.8483ZM67.888 69.016C67.888 66.1736 68.6878 65.3092 69.2056 64.8949C70.0642 64.208 72.2627 63.192 77.168 63.192V47.192C70.5533 47.192 64.1118 48.48 59.2104 52.401C53.9682 56.5948 51.888 62.6423 51.888 69.016H67.888ZM77.168 63.192C83.8545 63.192 94.7349 65.7831 110.419 71.8666L116.205 56.9494C100.209 50.7449 86.9935 47.192 77.168 47.192V63.192ZM110.49 71.8936C116.833 74.2852 124.583 76.4474 133.645 78.4174L137.043 62.7826C128.441 60.9126 121.503 58.9468 116.134 56.9224L110.49 71.8936ZM133.662 78.4212C143.148 80.4612 152.784 81.48 162.56 81.48V65.48C153.904 65.48 145.396 64.5788 137.026 62.7788L133.662 78.4212ZM162.56 81.48C167.422 81.48 171.752 81.2167 175.454 80.6231C179.054 80.046 182.608 79.0751 185.54 77.3159L177.308 63.5961C176.88 63.8529 175.61 64.394 172.922 64.8248C170.336 65.2393 166.914 65.48 162.56 65.48V81.48ZM185.54 77.3159C191.323 73.8462 194.464 68.2585 194.464 61.528H178.464C178.464 62.3295 178.303 62.6629 178.237 62.7792C178.173 62.8939 177.977 63.1947 177.308 63.5961L185.54 77.3159ZM194.464 61.528C194.464 57.5308 193.306 53.6938 190.763 50.4245L178.133 60.2475C178.278 60.4342 178.464 60.7252 178.464 61.528H194.464ZM191.05 50.8185C189.353 48.3378 186.994 45.7896 183.711 44.3828L177.409 59.0891C177.086 58.9509 176.992 58.8341 177.105 58.9381C177.221 59.0458 177.479 59.3172 177.846 59.8535L191.05 50.8185ZM183.912 44.4723L182.04 43.6083L175.336 58.1357L177.208 58.9997L183.912 44.4723ZM183.488 44.472C184.178 44.9898 184.763 45.7077 185.134 46.5429C185.485 47.3317 185.536 47.9756 185.536 48.28H169.536C169.536 51.3839 170.692 54.875 173.888 57.272L183.488 44.472ZM77.312 84.072C88.5989 84.072 98.7807 81.3047 105.038 73.4087L92.498 63.4713C90.6913 65.7512 86.5691 68.072 77.312 68.072V84.072ZM101.985 61.1155C96.7184 58.802 92.1418 56.9956 88.3108 55.7538C84.667 54.5727 81.0244 53.672 77.888 53.672V69.672C78.3996 69.672 80.061 69.8993 83.3772 70.9742C86.5062 71.9884 90.5456 73.566 95.5507 75.7645L101.985 61.1155ZM77.888 53.672C73.704 53.672 68.7316 54.3917 64.988 57.6674L75.524 69.7086C75.1349 70.0491 74.9465 70.0197 75.3591 69.9107C75.7783 69.8 76.5782 69.672 77.888 69.672V53.672ZM65.3964 57.3331C61.8294 60.0608 59.808 64.0209 59.808 68.584H75.808C75.808 68.6858 75.7791 69.0184 75.5754 69.4257C75.3742 69.8281 75.1435 70.0215 75.1156 70.0429L65.3964 57.3331ZM59.808 68.584C59.808 72.8884 61.2697 77.3613 65.233 80.4839C68.833 83.3203 73.3104 84.072 77.312 84.072V68.072C76.2271 68.072 75.5516 67.9624 75.1861 67.8664C74.8342 67.774 74.8975 67.729 75.135 67.9161C75.2538 68.0096 75.3858 68.1383 75.5091 68.3001C75.6321 68.4617 75.7166 68.6172 75.7697 68.7429C75.8745 68.9905 75.808 68.9985 75.808 68.584H59.808Z" fill="#1D48F7"/>
<path d="M361.39 152C360.657 152 359.997 151.743 359.41 151.23C358.897 150.643 358.64 149.983 358.64 149.25V92.27H339.06C338.327 92.27 337.667 92.0133 337.08 91.5C336.567 90.9133 336.31 90.2533 336.31 89.52V77.75C336.31 76.9433 336.567 76.2833 337.08 75.77C337.667 75.2567 338.327 75 339.06 75H398.24C399.047 75 399.707 75.2567 400.22 75.77C400.733 76.2833 400.99 76.9433 400.99 77.75V89.52C400.99 90.3267 400.733 90.9867 400.22 91.5C399.707 92.0133 399.047 92.27 398.24 92.27H378.66V149.25C378.66 149.983 378.403 150.643 377.89 151.23C377.377 151.743 376.717 152 375.91 152H361.39ZM433.427 153.1C424.627 153.1 417.697 150.717 412.637 145.95C407.577 141.183 404.937 134.253 404.717 125.16V121.31C405.01 112.657 407.687 105.91 412.747 101.07C417.88 96.1567 424.737 93.7 433.317 93.7C439.55 93.7 444.794 94.9833 449.047 97.55C453.374 100.043 456.6 103.49 458.727 107.89C460.927 112.29 462.027 117.35 462.027 123.07V125.71C462.027 126.443 461.77 127.103 461.257 127.69C460.744 128.203 460.084 128.46 459.277 128.46H424.077V129.23C424.224 132.677 425.067 135.463 426.607 137.59C428.147 139.717 430.384 140.78 433.317 140.78C435.15 140.78 436.654 140.413 437.827 139.68C439 138.873 440.064 137.92 441.017 136.82C441.677 136.013 442.19 135.537 442.557 135.39C442.997 135.17 443.657 135.06 444.537 135.06H458.177C458.837 135.06 459.387 135.28 459.827 135.72C460.34 136.087 460.597 136.6 460.597 137.26C460.597 139.167 459.497 141.367 457.297 143.86C455.17 146.353 452.054 148.517 447.947 150.35C443.84 152.183 439 153.1 433.427 153.1ZM442.667 117.57V117.35C442.667 113.757 441.824 110.933 440.137 108.88C438.524 106.753 436.25 105.69 433.317 105.69C430.457 105.69 428.184 106.753 426.497 108.88C424.884 110.933 424.077 113.757 424.077 117.35V117.57H442.667ZM527.23 148.37C527.523 148.663 527.67 149.14 527.67 149.8C527.67 150.387 527.45 150.9 527.01 151.34C526.57 151.78 525.983 152 525.25 152H509.74C508.42 152 507.356 151.413 506.55 150.24L493.68 130.22H487.85V149.25C487.85 150.057 487.556 150.717 486.97 151.23C486.456 151.743 485.796 152 484.99 152H472.34C471.533 152 470.873 151.743 470.36 151.23C469.846 150.717 469.59 150.057 469.59 149.25V97.55C469.59 96.7433 469.846 96.0833 470.36 95.57C470.873 95.0567 471.533 94.8 472.34 94.8H484.99C485.796 94.8 486.456 95.0567 486.97 95.57C487.556 96.0833 487.85 96.7433 487.85 97.55V115.81H493.9L505.67 96.56C506.476 95.3867 507.503 94.8 508.75 94.8H522.83C523.49 94.8 524.04 95.02 524.48 95.46C524.993 95.9 525.25 96.4133 525.25 97C525.25 97.5133 525.066 98.0267 524.7 98.54L509.74 122.52L527.23 148.37ZM557.368 153.1C549.081 153.1 542.371 150.9 537.238 146.5C532.105 142.027 529.355 135.83 528.988 127.91L528.878 123.51L528.988 119C529.281 111.08 531.995 104.883 537.128 100.41C542.335 95.9367 549.081 93.7 557.368 93.7C563.601 93.7 568.845 94.8367 573.098 97.11C577.425 99.31 580.615 101.987 582.668 105.14C584.795 108.22 585.931 111.043 586.078 113.61C586.151 114.343 585.895 115.003 585.308 115.59C584.795 116.103 584.135 116.36 583.328 116.36H569.358C568.551 116.36 567.928 116.177 567.488 115.81C567.048 115.443 566.645 114.893 566.278 114.16C565.398 111.887 564.261 110.273 562.868 109.32C561.548 108.367 559.825 107.89 557.698 107.89C551.685 107.89 548.568 111.777 548.348 119.55L548.238 123.73L548.348 127.36C548.495 131.32 549.338 134.253 550.878 136.16C552.491 137.993 554.765 138.91 557.698 138.91C559.971 138.91 561.768 138.433 563.088 137.48C564.408 136.527 565.471 134.913 566.278 132.64C566.645 131.907 567.048 131.357 567.488 130.99C567.928 130.623 568.551 130.44 569.358 130.44H583.328C584.061 130.44 584.685 130.697 585.198 131.21C585.785 131.65 586.078 132.237 586.078 132.97C586.078 135.317 585.051 138.067 582.998 141.22C581.018 144.373 577.865 147.16 573.538 149.58C569.211 151.927 563.821 153.1 557.368 153.1ZM610.481 152C609.747 152 609.087 151.743 608.501 151.23C607.987 150.643 607.731 149.983 607.731 149.25V109.21H591.011C590.277 109.21 589.617 108.953 589.031 108.44C588.517 107.853 588.261 107.193 588.261 106.46V97.55C588.261 96.7433 588.517 96.0833 589.031 95.57C589.617 95.0567 590.277 94.8 591.011 94.8H642.711C643.517 94.8 644.177 95.0567 644.691 95.57C645.204 96.0833 645.461 96.7433 645.461 97.55V106.46C645.461 107.193 645.204 107.853 644.691 108.44C644.177 108.953 643.517 109.21 642.711 109.21H625.991V149.25C625.991 149.983 625.734 150.643 625.221 151.23C624.707 151.743 624.047 152 623.241 152H610.481ZM677.784 153.1C668.691 153.1 661.688 150.937 656.774 146.61C651.861 142.283 649.184 136.197 648.744 128.35C648.671 127.397 648.634 125.747 648.634 123.4C648.634 121.053 648.671 119.403 648.744 118.45C649.184 110.677 651.934 104.627 656.994 100.3C662.054 95.9 668.984 93.7 677.784 93.7C686.658 93.7 693.624 95.9 698.684 100.3C703.744 104.627 706.494 110.677 706.934 118.45C707.008 119.403 707.044 121.053 707.044 123.4C707.044 125.747 707.008 127.397 706.934 128.35C706.494 136.197 703.818 142.283 698.904 146.61C693.991 150.937 686.951 153.1 677.784 153.1ZM677.784 139.68C681.011 139.68 683.394 138.727 684.934 136.82C686.474 134.84 687.354 131.833 687.574 127.8C687.648 127.067 687.684 125.6 687.684 123.4C687.684 121.2 687.648 119.733 687.574 119C687.354 115.04 686.438 112.07 684.824 110.09C683.284 108.11 680.938 107.12 677.784 107.12C671.698 107.12 668.471 111.08 668.104 119L667.994 123.4L668.104 127.8C668.251 131.833 669.094 134.84 670.634 136.82C672.248 138.727 674.631 139.68 677.784 139.68ZM717.97 172.9C717.237 172.9 716.577 172.643 715.99 172.13C715.477 171.617 715.22 170.957 715.22 170.15V97.55C715.22 96.7433 715.477 96.0833 715.99 95.57C716.577 95.0567 717.237 94.8 717.97 94.8H730.4C731.207 94.8 731.867 95.0567 732.38 95.57C732.894 96.0833 733.15 96.7433 733.15 97.55V101.51C737.11 96.3033 742.794 93.7 750.2 93.7C757.387 93.7 762.997 95.9367 767.03 100.41C771.064 104.883 773.264 111.19 773.63 119.33C773.704 120.283 773.74 121.64 773.74 123.4C773.74 125.16 773.704 126.517 773.63 127.47C773.337 135.39 771.137 141.66 767.03 146.28C762.924 150.827 757.314 153.1 750.2 153.1C743.014 153.1 737.66 150.643 734.14 145.73V170.15C734.14 170.957 733.884 171.617 733.37 172.13C732.857 172.643 732.197 172.9 731.39 172.9H717.97ZM744.26 138.36C747.707 138.36 750.164 137.333 751.63 135.28C753.17 133.227 754.05 130.403 754.27 126.81C754.417 125.343 754.49 124.207 754.49 123.4C754.49 122.593 754.417 121.457 754.27 119.99C754.05 116.397 753.17 113.573 751.63 111.52C750.164 109.467 747.707 108.44 744.26 108.44C740.887 108.44 738.394 109.503 736.78 111.63C735.24 113.683 734.36 116.36 734.14 119.66L734.03 123.73L734.14 127.91C734.287 130.917 735.204 133.41 736.89 135.39C738.577 137.37 741.034 138.36 744.26 138.36ZM837.415 94.8C838.148 94.8 838.772 95.0567 839.285 95.57C839.798 96.0833 840.055 96.7067 840.055 97.44V149.25C840.055 149.983 839.798 150.643 839.285 151.23C838.772 151.743 838.112 152 837.305 152H824.325C823.592 152 822.932 151.743 822.345 151.23C821.832 150.643 821.575 149.983 821.575 149.25V118.45L799.245 150.24C798.438 151.413 797.412 152 796.165 152H784.505C783.772 152 783.148 151.743 782.635 151.23C782.122 150.717 781.865 150.093 781.865 149.36V97.55C781.865 96.7433 782.122 96.0833 782.635 95.57C783.148 95.0567 783.808 94.8 784.615 94.8H797.595C798.402 94.8 799.062 95.0567 799.575 95.57C800.088 96.0833 800.345 96.7433 800.345 97.55V128.24L822.565 96.56C823.372 95.3867 824.398 94.8 825.645 94.8H837.415ZM899.531 94.8C900.338 94.8 900.998 95.0567 901.511 95.57C902.025 96.0833 902.281 96.7433 902.281 97.55V149.25C902.281 149.983 902.025 150.643 901.511 151.23C900.998 151.743 900.338 152 899.531 152H886.111C885.378 152 884.718 151.743 884.131 151.23C883.618 150.643 883.361 149.983 883.361 149.25V133.63H875.441L866.311 150.35C865.725 151.45 864.845 152 863.671 152H850.581C849.848 152 849.261 151.78 848.821 151.34C848.381 150.9 848.161 150.387 848.161 149.8C848.161 149.213 848.345 148.7 848.711 148.26L859.711 130.22C856.558 128.607 854.175 126.443 852.561 123.73C850.948 120.943 850.141 117.717 850.141 114.05C850.141 107.817 852.195 103.05 856.301 99.75C860.408 96.45 866.165 94.8 873.571 94.8H899.531ZM883.691 107.45H874.561C871.848 107.45 869.831 107.963 868.511 108.99C867.265 110.017 866.641 111.703 866.641 114.05C866.641 116.25 867.265 117.973 868.511 119.22C869.758 120.393 871.628 120.98 874.121 120.98H883.691V107.45ZM915.098 152C914.365 152 913.705 151.743 913.118 151.23C912.605 150.643 912.348 149.983 912.348 149.25V135.28C912.348 134.473 912.605 133.813 913.118 133.3C913.705 132.787 914.365 132.53 915.098 132.53H929.068C929.875 132.53 930.535 132.787 931.048 133.3C931.562 133.813 931.818 134.473 931.818 135.28V149.25C931.818 149.983 931.562 150.643 931.048 151.23C930.535 151.743 929.875 152 929.068 152H915.098ZM944.158 172.9C943.425 172.9 942.765 172.643 942.178 172.13C941.665 171.617 941.408 170.957 941.408 170.15V97.55C941.408 96.7433 941.665 96.0833 942.178 95.57C942.765 95.0567 943.425 94.8 944.158 94.8H956.588C957.395 94.8 958.055 95.0567 958.568 95.57C959.081 96.0833 959.338 96.7433 959.338 97.55V101.51C963.298 96.3033 968.981 93.7 976.388 93.7C983.575 93.7 989.185 95.9367 993.218 100.41C997.251 104.883 999.451 111.19 999.818 119.33C999.891 120.283 999.928 121.64 999.928 123.4C999.928 125.16 999.891 126.517 999.818 127.47C999.525 135.39 997.325 141.66 993.218 146.28C989.111 150.827 983.501 153.1 976.388 153.1C969.201 153.1 963.848 150.643 960.328 145.73V170.15C960.328 170.957 960.071 171.617 959.558 172.13C959.045 172.643 958.385 172.9 957.578 172.9H944.158ZM970.448 138.36C973.895 138.36 976.351 137.333 977.818 135.28C979.358 133.227 980.238 130.403 980.458 126.81C980.605 125.343 980.678 124.207 980.678 123.4C980.678 122.593 980.605 121.457 980.458 119.99C980.238 116.397 979.358 113.573 977.818 111.52C976.351 109.467 973.895 108.44 970.448 108.44C967.075 108.44 964.581 109.503 962.968 111.63C961.428 113.683 960.548 116.36 960.328 119.66L960.218 123.73L960.328 127.91C960.475 130.917 961.391 133.41 963.078 135.39C964.765 137.37 967.221 138.36 970.448 138.36ZM1039.4 172.9C1038.67 172.9 1038.01 172.643 1037.42 172.13C1036.91 171.617 1036.65 170.957 1036.65 170.15V152C1026.9 152 1019.46 149.91 1014.32 145.73C1009.26 141.55 1006.51 135.61 1006.07 127.91C1006 126.883 1005.96 125.38 1005.96 123.4C1005.96 121.347 1006 119.843 1006.07 118.89C1006.51 111.263 1009.34 105.36 1014.54 101.18C1019.82 96.9267 1027.19 94.8 1036.65 94.8V76.65C1036.65 75.8433 1036.91 75.1833 1037.42 74.67C1038.01 74.1567 1038.67 73.9 1039.4 73.9H1052.38C1053.19 73.9 1053.85 74.1567 1054.36 74.67C1054.95 75.1833 1055.24 75.8433 1055.24 76.65V94.8C1064.7 94.8 1072.04 96.9267 1077.24 101.18C1082.45 105.36 1085.31 111.263 1085.82 118.89C1085.9 119.843 1085.93 121.347 1085.93 123.4C1085.93 125.38 1085.9 126.883 1085.82 127.91C1085.31 135.61 1082.52 141.55 1077.46 145.73C1072.4 149.91 1065 152 1055.24 152V170.15C1055.24 170.957 1054.95 171.617 1054.36 172.13C1053.85 172.643 1053.19 172.9 1052.38 172.9H1039.4ZM1036.76 108.22C1032.58 108.22 1029.54 109.173 1027.63 111.08C1025.73 112.987 1024.66 115.993 1024.44 120.1L1024.33 123.4C1024.33 128.9 1025.25 132.823 1027.08 135.17C1028.99 137.443 1032.22 138.58 1036.76 138.58V108.22ZM1055.02 138.58C1059.72 138.58 1062.98 137.407 1064.81 135.06C1066.65 132.713 1067.56 128.827 1067.56 123.4C1067.56 121.86 1067.53 120.76 1067.45 120.1C1067.23 115.92 1066.13 112.913 1064.15 111.08C1062.25 109.173 1059.2 108.22 1055.02 108.22V138.58Z" fill="white"/>
</svg>
