<svg width="996" height="877" viewBox="0 0 996 877" fill="none" xmlns="http://www.w3.org/2000/svg">
<rect x="147.028" y="416.344" width="715.139" height="386.928" fill="#0B49FA"/>
<path d="M890.772 417.85L116.917 417.85V407.739C116.917 396.693 125.871 387.739 136.917 387.739L870.772 387.739C881.818 387.739 890.772 396.693 890.772 407.739V417.85Z" fill="#CED8FC"/>
<rect x="216.283" y="315.472" width="575.122" height="489.306" fill="#FAFAFA"/>
<path d="M216.283 284.283C216.283 273.238 225.238 264.283 236.283 264.283H771.406C782.451 264.283 791.406 273.238 791.406 284.283V315.472H216.283V284.283Z" fill="#0029C9"/>
<circle cx="255.428" cy="289.878" r="4.51667" fill="white"/>
<circle cx="275" cy="289.878" r="4.51667" fill="white"/>
<circle cx="294.572" cy="289.878" r="4.51667" fill="white"/>
<rect x="421.039" y="402.794" width="103.883" height="13.55" fill="#CED8FC"/>
<rect x="421.039" y="374.189" width="137.006" height="13.55" fill="#CED8FC"/>
<rect x="421.039" y="345.583" width="126.467" height="13.55" fill="#CED8FC"/>
<rect x="558.044" y="345.583" width="117.433" height="13.55" fill="#CED8FC"/>
<rect x="684.511" y="345.583" width="79.7944" height="13.55" fill="#CED8FC"/>
<rect x="579.122" y="374.189" width="58.7167" height="13.55" fill="#CED8FC"/>
<rect x="654.4" y="374.189" width="48.1778" height="13.55" fill="#CED8FC"/>
<rect x="716.128" y="374.189" width="48.1778" height="13.55" fill="#CED8FC"/>
<rect x="421.039" y="431.4" width="158.083" height="13.55" fill="#CED8FC"/>
<rect x="421.039" y="460.006" width="221.317" height="13.55" fill="#CED8FC"/>
<rect x="421.039" y="488.611" width="275.517" height="13.55" fill="#CED8FC"/>
<rect x="421.039" y="517.217" width="132.489" height="13.55" fill="#CED8FC"/>
<rect x="421.039" y="545.822" width="173.139" height="13.55" fill="#CED8FC"/>
<rect x="241.878" y="574.428" width="311.65" height="13.55" fill="#CED8FC"/>
<rect x="241.878" y="603.033" width="192.711" height="13.55" fill="#CED8FC"/>
<rect x="241.878" y="631.639" width="121.95" height="13.55" fill="#CED8FC"/>
<rect x="241.878" y="660.244" width="386.928" height="13.55" fill="#CED8FC"/>
<rect x="241.878" y="688.85" width="78.2889" height="13.55" fill="#CED8FC"/>
<rect x="241.878" y="717.456" width="186.689" height="13.55" fill="#CED8FC"/>
<rect x="241.878" y="746.061" width="400.478" height="13.55" fill="#CED8FC"/>
<rect x="451.15" y="717.456" width="102.378" height="13.55" fill="#CED8FC"/>
<rect x="661.928" y="746.061" width="102.378" height="13.55" fill="#CED8FC"/>
<rect x="571.594" y="717.456" width="192.711" height="13.55" fill="#CED8FC"/>
<rect x="342.75" y="688.85" width="78.2889" height="13.55" fill="#CED8FC"/>
<rect x="443.622" y="688.85" width="78.2889" height="13.55" fill="#CED8FC"/>
<rect x="544.495" y="688.85" width="105.389" height="13.55" fill="#CED8FC"/>
<rect x="675.478" y="688.85" width="88.8278" height="13.55" fill="#CED8FC"/>
<rect x="389.422" y="631.639" width="91.8389" height="13.55" fill="#CED8FC"/>
<rect x="508.361" y="631.639" width="85.8167" height="13.55" fill="#CED8FC"/>
<rect x="621.278" y="631.639" width="143.028" height="13.55" fill="#CED8FC"/>
<rect x="643.861" y="660.244" width="120.444" height="13.55" fill="#CED8FC"/>
<rect x="457.172" y="603.033" width="192.711" height="13.55" fill="#CED8FC"/>
<rect x="669.456" y="603.033" width="94.85" height="13.55" fill="#CED8FC"/>
<rect x="571.594" y="574.428" width="88.8278" height="13.55" fill="#CED8FC"/>
<rect x="675.478" y="574.428" width="88.8278" height="13.55" fill="#CED8FC"/>
<rect x="607.728" y="545.822" width="156.578" height="13.55" fill="#CED8FC"/>
<rect x="571.594" y="517.217" width="97.8611" height="13.55" fill="#CED8FC"/>
<rect x="684.511" y="517.217" width="79.7944" height="13.55" fill="#CED8FC"/>
<rect x="713.117" y="488.611" width="51.1889" height="13.55" fill="#CED8FC"/>
<rect x="660.422" y="460.006" width="103.883" height="13.55" fill="#CED8FC"/>
<rect x="589.661" y="431.4" width="79.7944" height="13.55" fill="#CED8FC"/>
<rect x="684.511" y="431.4" width="79.7944" height="13.55" fill="#CED8FC"/>
<rect x="538.472" y="402.794" width="103.883" height="13.55" fill="#CED8FC"/>
<rect x="633.322" y="402.794" width="130.983" height="13.55" fill="#CED8FC"/>
<g filter="url(#filter0_d)">
<rect x="162.083" y="345.583" width="242.394" height="213.789" rx="10" fill="url(#paint0_linear)"/>
</g>
<path d="M201.682 497.567L231.202 396.767H254.242L283.762 497.567H263.602L257.122 474.527H228.322L221.842 497.567H201.682ZM253.522 461.567L244.882 431.327C244.594 430.271 244.306 429.023 244.018 427.583C243.73 426.047 243.538 424.943 243.442 424.271L243.01 420.527H242.434L241.858 424.271C241.666 425.135 241.426 426.335 241.138 427.871C240.946 429.311 240.754 430.463 240.562 431.327L231.922 461.567H253.522ZM318.266 499.007C309.818 499.007 303.242 496.991 298.538 492.959C293.93 488.831 291.626 483.407 291.626 476.687C291.626 469.487 294.218 463.871 299.402 459.839C304.682 455.711 312.89 453.647 324.026 453.647H334.106V451.487C334.106 446.399 333.002 442.751 330.794 440.543C328.586 438.239 325.13 437.087 320.426 437.087C316.394 437.087 312.698 438.047 309.338 439.967C307.994 440.639 306.65 441.599 305.306 442.847H303.866L297.386 431.327C299.69 429.791 301.946 428.591 304.154 427.727C310.394 425.327 316.298 424.127 321.866 424.127C328.586 424.127 334.394 425.327 339.29 427.727C344.186 430.031 347.882 433.247 350.378 437.375C352.97 441.503 354.266 446.207 354.266 451.487V497.567H339.866L338.426 488.927H337.706C336.074 491.039 334.442 492.719 332.81 493.967C328.778 497.327 323.93 499.007 318.266 499.007ZM321.866 485.327C324.842 485.327 327.77 483.887 330.65 481.007C331.994 479.663 333.146 478.223 334.106 476.687V466.607H324.026C315.866 466.607 311.786 469.967 311.786 476.687C311.786 479.279 312.65 481.391 314.378 483.023C316.202 484.559 318.698 485.327 321.866 485.327Z" fill="white"/>
<g filter="url(#filter1_d)">
<rect x="481.261" y="342.572" width="239.383" height="102.378" rx="10" fill="white"/>
</g>
<circle cx="541.483" cy="393.761" r="30.1111" fill="url(#paint1_linear)"/>
<path d="M553.318 393.166L535.228 402.896L535.422 383.085L553.318 393.166Z" fill="white"/>
<rect x="585.145" y="365.156" width="114.422" height="7.52778" fill="#CED8FC"/>
<rect x="585.145" y="377.2" width="114.422" height="7.52778" fill="#CED8FC"/>
<rect x="585.145" y="390.75" width="114.422" height="7.52778" fill="#CED8FC"/>
<rect x="585.145" y="404.3" width="114.422" height="15.0556" fill="#8AA4FF"/>
<rect x="116.917" y="803.272" width="773.856" height="30.1111" fill="#CED8FC"/>
<rect x="116.917" y="809.294" width="392.95" height="30.1111" transform="rotate(-90 116.917 809.294)" fill="#CED8FC"/>
<rect x="860.661" y="809.294" width="392.95" height="30.1111" transform="rotate(-90 860.661 809.294)" fill="#CED8FC"/>
<g filter="url(#filter2_d)">
<path d="M4 831.878H991.644C991.644 851.834 975.467 868.011 955.511 868.011H40.1334C20.1775 868.011 4 851.834 4 831.878Z" fill="white"/>
</g>
<rect x="400" y="832" width="204" height="8" fill="#A4BAFB"/>
<g filter="url(#filter3_d)">
<circle cx="236.608" cy="144.592" r="45.9194" fill="white"/>
<g clip-path="url(#clip0)">
<path d="M252.68 145.036C253.508 144.088 253.922 142.966 253.922 141.671C253.922 140.497 253.493 139.481 252.636 138.622C251.778 137.764 250.762 137.335 249.588 137.335H243.332C243.393 137.124 243.453 136.943 243.513 136.793C243.572 136.642 243.656 136.476 243.761 136.296C243.866 136.115 243.942 135.979 243.987 135.889C244.258 135.378 244.465 134.956 244.608 134.625C244.751 134.293 244.893 133.842 245.037 133.27C245.18 132.698 245.251 132.125 245.251 131.553C245.251 131.192 245.247 130.898 245.24 130.673C245.233 130.447 245.194 130.108 245.127 129.656C245.059 129.205 244.969 128.828 244.856 128.527C244.743 128.226 244.562 127.887 244.314 127.511C244.066 127.134 243.765 126.83 243.41 126.596C243.056 126.363 242.605 126.167 242.055 126.009C241.505 125.851 240.885 125.772 240.192 125.772C239.8 125.772 239.462 125.915 239.176 126.201C238.874 126.503 238.618 126.879 238.408 127.33C238.197 127.782 238.05 128.174 237.967 128.505C237.884 128.836 237.79 129.295 237.685 129.882C237.549 130.515 237.448 130.97 237.38 131.249C237.312 131.527 237.18 131.892 236.984 132.344C236.788 132.796 236.555 133.157 236.284 133.428C235.788 133.925 235.027 134.828 234.003 136.138C233.265 137.101 232.505 138.012 231.722 138.87C230.939 139.729 230.367 140.173 230.006 140.203C229.63 140.233 229.306 140.387 229.035 140.666C228.764 140.944 228.629 141.272 228.629 141.648V156.124C228.629 156.515 228.771 156.85 229.058 157.129C229.344 157.408 229.682 157.554 230.074 157.569C230.601 157.585 231.79 157.915 233.642 158.563C234.801 158.954 235.708 159.252 236.363 159.455C237.018 159.658 237.933 159.876 239.106 160.11C240.281 160.343 241.365 160.46 242.358 160.46H242.742H244.459H245.271C247.274 160.43 248.757 159.843 249.72 158.699C250.593 157.66 250.962 156.297 250.827 154.611C251.414 154.054 251.821 153.347 252.046 152.489C252.302 151.571 252.302 150.69 252.046 149.847C252.739 148.928 253.063 147.897 253.017 146.753C253.019 146.271 252.906 145.699 252.68 145.036Z" fill="#0085FF"/>
<path d="M225.738 140.226H219.235C218.843 140.226 218.504 140.369 218.218 140.655C217.932 140.941 217.789 141.28 217.789 141.671V156.125C217.789 156.516 217.932 156.855 218.218 157.141C218.504 157.427 218.843 157.57 219.235 157.57H225.738C226.13 157.57 226.468 157.427 226.755 157.141C227.041 156.855 227.184 156.516 227.184 156.125V141.671C227.184 141.28 227.04 140.941 226.755 140.655C226.468 140.369 226.13 140.226 225.738 140.226ZM223.141 154.261C222.855 154.54 222.516 154.679 222.125 154.679C221.718 154.679 221.376 154.54 221.097 154.261C220.819 153.983 220.68 153.64 220.68 153.234C220.68 152.842 220.819 152.504 221.097 152.218C221.376 151.932 221.718 151.788 222.125 151.788C222.516 151.788 222.855 151.932 223.141 152.218C223.427 152.504 223.57 152.842 223.57 153.234C223.57 153.64 223.428 153.983 223.141 154.261Z" fill="#0029C9"/>
</g>
</g>
<g filter="url(#filter4_d)">
<circle cx="445.128" cy="98.6722" r="39.1444" fill="url(#paint2_linear)"/>
<path d="M461.091 90.1322L458.184 87.226C457.786 86.8272 457.301 86.6277 456.732 86.6277C456.161 86.6277 455.677 86.8272 455.278 87.226L441.26 101.266L434.977 94.9616C434.578 94.5626 434.094 94.3634 433.524 94.3634C432.954 94.3634 432.47 94.5626 432.071 94.9616L429.165 97.8678C428.766 98.2667 428.567 98.7511 428.567 99.3211C428.567 99.8906 428.766 100.376 429.165 100.774L436.9 108.51L439.807 111.416C440.206 111.815 440.69 112.014 441.26 112.014C441.83 112.014 442.314 111.814 442.713 111.416L445.619 108.51L461.091 93.0385C461.489 92.6396 461.689 92.1552 461.689 91.5852C461.689 91.0156 461.489 90.5311 461.091 90.1322Z" fill="white"/>
</g>
<g filter="url(#filter5_d)">
<circle cx="877.222" cy="228.15" r="39.1444" fill="url(#paint3_linear)"/>
<path d="M893.185 219.61L890.279 216.704C889.88 216.305 889.396 216.106 888.826 216.106C888.256 216.106 887.771 216.305 887.373 216.704L873.354 230.743L867.072 224.439C866.673 224.04 866.189 223.841 865.619 223.841C865.049 223.841 864.565 224.04 864.166 224.439L861.259 227.346C860.861 227.744 860.661 228.229 860.661 228.799C860.661 229.368 860.861 229.853 861.259 230.252L868.995 237.987L871.901 240.894C872.3 241.293 872.785 241.492 873.354 241.492C873.924 241.492 874.409 241.292 874.807 240.894L877.714 237.987L893.185 222.516C893.584 222.117 893.783 221.633 893.783 221.063C893.784 220.493 893.584 220.009 893.185 219.61Z" fill="white"/>
</g>
<g filter="url(#filter6_d)">
<rect x="541.483" y="173.95" width="120.444" height="46.7515" rx="15" fill="#FF68C3"/>
<path d="M581.644 189.006L584.079 193.326L588.94 194.307L585.584 197.958L586.153 202.884L581.644 200.82L577.134 202.884L577.703 197.958L574.347 194.307L579.208 193.326L581.644 189.006Z" fill="white"/>
<path d="M602.102 189.006L604.537 193.326L609.398 194.307L606.042 197.958L606.611 202.884L602.102 200.82L597.592 202.884L598.162 197.958L594.805 194.307L599.667 193.326L602.102 189.006Z" fill="white"/>
<path d="M622.56 189.006L624.995 193.326L629.856 194.307L626.5 197.958L627.069 202.884L622.56 200.82L618.051 202.884L618.62 197.958L615.264 194.307L620.125 193.326L622.56 189.006Z" fill="white"/>
</g>
<g filter="url(#filter7_d)">
<g clip-path="url(#clip1)">
<path d="M79.1467 252.239H26.7144C17.9889 252.239 10.9159 259.312 10.9159 268.037V302.426C10.9159 311.152 17.9892 318.225 26.7144 318.225H34.2391C34.5972 318.225 34.8873 318.515 34.8873 318.873V335.837C34.8873 337.842 37.3406 338.815 38.7145 337.353L56.5128 318.429C56.6353 318.299 56.8063 318.225 56.9851 318.225H79.1467C87.872 318.225 94.9452 311.152 94.9452 302.426V268.037C94.9452 259.312 87.8718 252.239 79.1467 252.239Z" fill="#EC5569"/>
<path d="M41.5339 312.329C41.5339 311.952 41.253 311.646 40.9064 311.646H33.6217C25.1747 311.646 18.3272 304.198 18.3272 295.01V258.796C18.3272 257.242 18.5239 255.737 18.8905 254.309C14.1268 257.03 10.9159 262.159 10.9159 268.037V302.426C10.9159 311.152 17.9892 318.225 26.7144 318.225H34.2391C34.5972 318.225 34.8873 318.515 34.8873 318.873V335.837C34.8873 337.842 37.3406 338.815 38.7145 337.353L41.5337 334.356V312.329H41.5339Z" fill="#E63950"/>
<path d="M70.6819 272.742C66.6708 268.731 60.1675 268.731 56.1562 272.742L53.8905 275.008C53.3503 275.548 52.4742 275.548 51.934 275.008L49.7044 272.778C45.6933 268.767 39.19 268.767 35.1787 272.778C31.1676 276.789 31.1676 283.293 35.1787 287.304L51.9353 304.06C52.4755 304.601 53.3516 304.601 53.8918 304.06L70.6817 287.268C74.693 283.256 74.693 276.753 70.6819 272.742Z" fill="#EC5569"/>
<path d="M70.6819 272.742C66.6708 268.731 60.1675 268.731 56.1562 272.742L53.8905 275.008C53.3503 275.548 52.4742 275.548 51.934 275.008L49.7044 272.778C45.6933 268.767 39.19 268.767 35.1787 272.778C31.1676 276.789 31.1676 283.293 35.1787 287.304L51.9353 304.06C52.4755 304.601 53.3516 304.601 53.8918 304.06L70.6817 287.268C74.693 283.256 74.693 276.753 70.6819 272.742Z" fill="#FFF5F5"/>
<path d="M40.5518 287.304C36.5407 283.293 36.5407 276.789 40.5518 272.778C41.8675 271.462 43.4521 270.581 45.128 270.129C41.6944 269.201 37.8742 270.083 35.179 272.778C31.1679 276.789 31.1679 283.293 35.179 287.304L51.9356 304.06C52.4758 304.601 53.3519 304.601 53.8921 304.06L55.6 302.352L40.5518 287.304Z" fill="#DCE6EB"/>
</g>
</g>
<g clip-path="url(#clip2)">
<path d="M703.143 99.3158H700.308L692 68H679L687.557 100.253C687.986 101.872 689.462 103 691.149 103H703.143C704.168 103 705 102.175 705 101.158C705 100.141 704.168 99.3158 703.143 99.3158Z" fill="#707487"/>
<path d="M692.554 100.254L686.507 76.4931C686.169 75.1693 687.298 73.9479 688.595 74.2198C690.204 74.5572 691.786 74.9097 693.325 75.2822L691.471 68H679L687.209 100.253C687.621 101.872 689.036 103 690.655 103H696C694.381 103 692.966 101.872 692.554 100.254Z" fill="#5B5D6E"/>
<path d="M667.667 48C665.642 48 664 49.6117 664 51.6V62.4C664 64.3881 665.642 66 667.667 66H675V48H667.667Z" fill="#7F8499"/>
<path d="M671.333 57C669.308 57 667.667 55.3881 667.667 53.4V48C665.642 48 664 49.6117 664 51.6V62.4C664 64.3881 665.642 66 667.667 66H675V57H671.333Z" fill="#707487"/>
<path d="M739.316 26H733.789C731.755 26 730.105 27.6327 730.105 29.647V30.5016C723.888 33.3023 702.526 42.2443 676.24 45.6695C674.395 45.9099 673 47.4441 673 49.2874V64.7128C673 66.5559 674.394 68.0901 676.24 68.3307C702.526 71.7555 723.888 80.6979 730.105 83.4984V84.353C730.105 86.3671 731.755 88 733.789 88H739.316C741.35 88 743 86.3671 743 84.353V29.647C743 27.6327 741.35 26 739.316 26Z" fill="#FFDC64"/>
<path d="M769.167 59H750.833C749.82 59 749 58.1056 749 57C749 55.8944 749.82 55 750.833 55H769.167C770.18 55 771 55.8944 771 57C771 58.1056 770.18 59 769.167 59Z" fill="#FFF082"/>
<path d="M761.776 41.3082C761.061 41.3082 760.38 40.89 760.08 40.1893C759.679 39.2543 760.113 38.1696 761.05 37.768L762.895 36.977C763.824 36.5696 764.914 37.0058 765.316 37.9462C765.718 38.8812 765.283 39.9659 764.347 40.3675L762.502 41.1585C762.266 41.2613 762.019 41.3082 761.776 41.3082Z" fill="#FFF6B4"/>
<path d="M750.707 46.0517C749.992 46.0517 749.311 45.6339 749.012 44.9328C748.61 43.9978 749.044 42.9132 749.981 42.5115L755.515 40.1389C756.443 39.7316 757.535 40.1696 757.937 41.1082C758.338 42.0432 757.904 43.1278 756.967 43.5295L751.433 45.9021C751.197 46.0049 750.95 46.0517 750.707 46.0517Z" fill="#FFF6B4"/>
<path d="M763.621 77.4137C763.377 77.4137 763.131 77.3669 762.895 77.2643L761.045 76.4714C760.108 76.0716 759.674 74.9868 760.075 74.0501C760.475 73.1116 761.569 72.6754 762.497 73.0809L764.347 73.8738C765.284 74.2735 765.718 75.3584 765.316 76.295C765.017 76.996 764.336 77.4137 763.621 77.4137Z" fill="#FFF6B4"/>
<path d="M756.24 74.2501C755.996 74.2501 755.749 74.2033 755.514 74.1007L749.981 71.7298C749.044 71.3281 748.61 70.2435 749.012 69.3085C749.411 68.37 750.503 67.9338 751.433 68.3392L756.966 70.7102C757.902 71.1118 758.336 72.1964 757.935 73.1314C757.636 73.8322 756.955 74.2501 756.24 74.2501Z" fill="#FFF6B4"/>
<path d="M728.018 83.1132C728.786 83.4498 729.462 83.7529 730 84V30C729.096 30.4157 727.836 30.9758 726.323 31.6201V59.8132C726.323 62.0668 724.363 63.8043 722.153 63.4953C712.257 62.1119 695.601 60.1255 676.234 59.2165C674.392 59.1298 673 58.5783 673 57.9153V64.8582C673 66.7355 674.39 68.2992 676.232 68.5442C698.665 71.5275 717.461 78.6054 726.328 82.3818C726.554 82.478 727.695 82.9708 728.018 83.1132Z" fill="#FFC850"/>
</g>
<defs>
<filter id="filter0_d" x="162.083" y="345.583" width="250.394" height="221.789" filterUnits="userSpaceOnUse" color-interpolation-filters="sRGB">
<feFlood flood-opacity="0" result="BackgroundImageFix"/>
<feColorMatrix in="SourceAlpha" type="matrix" values="0 0 0 0 0 0 0 0 0 0 0 0 0 0 0 0 0 0 127 0"/>
<feOffset dx="4" dy="4"/>
<feGaussianBlur stdDeviation="2"/>
<feColorMatrix type="matrix" values="0 0 0 0 0 0 0 0 0 0 0 0 0 0 0 0 0 0 0.25 0"/>
<feBlend mode="normal" in2="BackgroundImageFix" result="effect1_dropShadow"/>
<feBlend mode="normal" in="SourceGraphic" in2="effect1_dropShadow" result="shape"/>
</filter>
<filter id="filter1_d" x="481.261" y="342.572" width="247.383" height="110.378" filterUnits="userSpaceOnUse" color-interpolation-filters="sRGB">
<feFlood flood-opacity="0" result="BackgroundImageFix"/>
<feColorMatrix in="SourceAlpha" type="matrix" values="0 0 0 0 0 0 0 0 0 0 0 0 0 0 0 0 0 0 127 0"/>
<feOffset dx="4" dy="4"/>
<feGaussianBlur stdDeviation="2"/>
<feColorMatrix type="matrix" values="0 0 0 0 0 0 0 0 0 0 0 0 0 0 0 0 0 0 0.3 0"/>
<feBlend mode="normal" in2="BackgroundImageFix" result="effect1_dropShadow"/>
<feBlend mode="normal" in="SourceGraphic" in2="effect1_dropShadow" result="shape"/>
</filter>
<filter id="filter2_d" x="0" y="831.878" width="995.644" height="44.1333" filterUnits="userSpaceOnUse" color-interpolation-filters="sRGB">
<feFlood flood-opacity="0" result="BackgroundImageFix"/>
<feColorMatrix in="SourceAlpha" type="matrix" values="0 0 0 0 0 0 0 0 0 0 0 0 0 0 0 0 0 0 127 0"/>
<feOffset dy="4"/>
<feGaussianBlur stdDeviation="2"/>
<feColorMatrix type="matrix" values="0 0 0 0 0 0 0 0 0 0 0 0 0 0 0 0 0 0 0.25 0"/>
<feBlend mode="normal" in2="BackgroundImageFix" result="effect1_dropShadow"/>
<feBlend mode="normal" in="SourceGraphic" in2="effect1_dropShadow" result="shape"/>
</filter>
<filter id="filter3_d" x="186.689" y="98.6722" width="99.8389" height="99.8389" filterUnits="userSpaceOnUse" color-interpolation-filters="sRGB">
<feFlood flood-opacity="0" result="BackgroundImageFix"/>
<feColorMatrix in="SourceAlpha" type="matrix" values="0 0 0 0 0 0 0 0 0 0 0 0 0 0 0 0 0 0 127 0"/>
<feOffset dy="4"/>
<feGaussianBlur stdDeviation="2"/>
<feColorMatrix type="matrix" values="0 0 0 0 0 0 0 0 0 0 0 0 0 0 0 0 0 0 0.25 0"/>
<feBlend mode="normal" in2="BackgroundImageFix" result="effect1_dropShadow"/>
<feBlend mode="normal" in="SourceGraphic" in2="effect1_dropShadow" result="shape"/>
</filter>
<filter id="filter4_d" x="401.983" y="59.5278" width="86.2889" height="86.2889" filterUnits="userSpaceOnUse" color-interpolation-filters="sRGB">
<feFlood flood-opacity="0" result="BackgroundImageFix"/>
<feColorMatrix in="SourceAlpha" type="matrix" values="0 0 0 0 0 0 0 0 0 0 0 0 0 0 0 0 0 0 127 0"/>
<feOffset dy="4"/>
<feGaussianBlur stdDeviation="2"/>
<feColorMatrix type="matrix" values="0 0 0 0 0 0 0 0 0 0 0 0 0 0 0 0 0 0 0.25 0"/>
<feBlend mode="normal" in2="BackgroundImageFix" result="effect1_dropShadow"/>
<feBlend mode="normal" in="SourceGraphic" in2="effect1_dropShadow" result="shape"/>
</filter>
<filter id="filter5_d" x="834.078" y="189.006" width="86.2889" height="86.2889" filterUnits="userSpaceOnUse" color-interpolation-filters="sRGB">
<feFlood flood-opacity="0" result="BackgroundImageFix"/>
<feColorMatrix in="SourceAlpha" type="matrix" values="0 0 0 0 0 0 0 0 0 0 0 0 0 0 0 0 0 0 127 0"/>
<feOffset dy="4"/>
<feGaussianBlur stdDeviation="2"/>
<feColorMatrix type="matrix" values="0 0 0 0 0 0 0 0 0 0 0 0 0 0 0 0 0 0 0.25 0"/>
<feBlend mode="normal" in2="BackgroundImageFix" result="effect1_dropShadow"/>
<feBlend mode="normal" in="SourceGraphic" in2="effect1_dropShadow" result="shape"/>
</filter>
<filter id="filter6_d" x="537.483" y="173.95" width="128.444" height="54.7515" filterUnits="userSpaceOnUse" color-interpolation-filters="sRGB">
<feFlood flood-opacity="0" result="BackgroundImageFix"/>
<feColorMatrix in="SourceAlpha" type="matrix" values="0 0 0 0 0 0 0 0 0 0 0 0 0 0 0 0 0 0 127 0"/>
<feOffset dy="4"/>
<feGaussianBlur stdDeviation="2"/>
<feColorMatrix type="matrix" values="0 0 0 0 0 0 0 0 0 0 0 0 0 0 0 0 0 0 0.25 0"/>
<feBlend mode="normal" in2="BackgroundImageFix" result="effect1_dropShadow"/>
<feBlend mode="normal" in="SourceGraphic" in2="effect1_dropShadow" result="shape"/>
</filter>
<filter id="filter7_d" x="6.02222" y="252.239" width="93.8167" height="93.8167" filterUnits="userSpaceOnUse" color-interpolation-filters="sRGB">
<feFlood flood-opacity="0" result="BackgroundImageFix"/>
<feColorMatrix in="SourceAlpha" type="matrix" values="0 0 0 0 0 0 0 0 0 0 0 0 0 0 0 0 0 0 127 0"/>
<feOffset dy="4"/>
<feGaussianBlur stdDeviation="2"/>
<feColorMatrix type="matrix" values="0 0 0 0 0 0 0 0 0 0 0 0 0 0 0 0 0 0 0.25 0"/>
<feBlend mode="normal" in2="BackgroundImageFix" result="effect1_dropShadow"/>
<feBlend mode="normal" in="SourceGraphic" in2="effect1_dropShadow" result="shape"/>
</filter>
<linearGradient id="paint0_linear" x1="162.083" y1="451.579" x2="404.478" y2="451.579" gradientUnits="userSpaceOnUse">
<stop stop-color="#FDBC59"/>
<stop offset="1" stop-color="#FE606F"/>
</linearGradient>
<linearGradient id="paint1_linear" x1="511.372" y1="392.646" x2="571.595" y2="392.646" gradientUnits="userSpaceOnUse">
<stop stop-color="#FDB859"/>
<stop offset="1" stop-color="#FE636E"/>
</linearGradient>
<linearGradient id="paint2_linear" x1="405.983" y1="101.881" x2="484.272" y2="101.881" gradientUnits="userSpaceOnUse">
<stop stop-color="#FF5C6C"/>
<stop offset="1" stop-color="#EC9495"/>
</linearGradient>
<linearGradient id="paint3_linear" x1="838.078" y1="231.359" x2="916.367" y2="231.359" gradientUnits="userSpaceOnUse">
<stop stop-color="#FF6B2C"/>
<stop offset="1" stop-color="#FFB978"/>
</linearGradient>
<clipPath id="clip0">
<rect width="36.1333" height="36.1333" fill="white" transform="translate(217.789 125.772)"/>
</clipPath>
<clipPath id="clip1">
<rect width="85.8167" height="85.8167" fill="white" transform="translate(10.0222 252.239)"/>
</clipPath>
<clipPath id="clip2">
<rect width="103" height="103" fill="white" transform="matrix(-1 0 0 1 767 0)"/>
</clipPath>
</defs>
</svg>
