<svg width="496" height="496" viewBox="0 0 496 496" fill="none" xmlns="http://www.w3.org/2000/svg">
<g clip-path="url(#clip0)">
<path d="M422.414 168.09C415.273 168.09 408.457 160.871 401.816 153.84C398.984 150.84 394.465 146.047 392 144.488C389.535 146.047 385.008 150.848 382.176 153.84C373.824 162.68 365.176 171.832 355.977 166.512C346.594 161.078 350.289 148.785 353.855 136.887C354.969 133.191 356.711 127.367 356.984 124.441C354.367 123.273 348.695 121.953 345.09 121.121C332.762 118.238 320 115.281 320 104.168C320 93.0547 332.762 90.0703 345.105 87.207C348.703 86.3672 354.367 85.0391 356.984 83.8867C356.719 80.9609 354.969 75.1211 353.855 71.4336C350.289 59.5352 346.602 47.2383 355.977 41.8164C365.145 36.4883 373.816 45.6328 382.184 54.4961C385.016 57.4883 389.535 62.2813 392 63.8398C394.465 62.2813 398.992 57.4805 401.824 54.4805C410.176 45.6406 418.801 36.4727 428.023 41.8086C437.406 47.2383 433.711 59.5352 430.145 71.4336C429.031 75.1289 427.289 80.9531 427.016 83.8789C429.633 85.0469 435.305 86.3672 438.902 87.1992C451.238 90.0781 464 93.0469 464 104.168C464 115.289 451.238 118.258 438.902 121.121C435.305 121.961 429.633 123.289 427.016 124.441C427.281 127.367 429.031 133.207 430.145 136.895C433.711 148.793 437.398 161.09 428.023 166.512C426.137 167.602 424.266 168.09 422.414 168.09V168.09ZM392.816 64.2734C392.824 64.2734 392.824 64.2734 392.816 64.2734V64.2734Z" fill="#F0BC5E"/>
<path d="M80 160H128V248H80V160Z" fill="#F0BC5E"/>
<path d="M144 192H192V248H144V192Z" fill="#F0BC5E"/>
<path d="M208 128H256V248H208V128Z" fill="#F0BC5E"/>
<path d="M489.762 319.832C493.602 315.574 496 310 496 303.832C496 290.602 485.23 279.832 472 279.832H424C423.93 279.832 423.863 279.848 423.793 279.848C423.848 278.793 424 277.734 424 276.664V223.832C424 201.777 406.055 183.832 384 183.832H376V233C376 253.902 364.383 272.695 345.695 282.047C342.602 283.594 339.328 284.762 336 285.695V136H320V287.832H288V271.832H192V415.832H288V399.832H320V472C320 476.414 316.406 480 312 480H24C19.5938 480 16 476.414 16 472V72C16 67.5859 19.5938 64 24 64H96V80H32V464H304V433.031H288V448H48V96H97.4727C100.785 105.289 109.586 112 120 112H216C226.414 112 235.215 105.289 238.527 96H288V256H304V80H240V64H312C316.406 64 320 67.5859 320 72H336C336 58.7695 325.23 48 312 48H238.527C235.215 38.7109 226.414 32 216 32H207.191C203.48 13.7695 187.32 0 168 0C148.68 0 132.52 13.7695 128.809 32H120C109.586 32 100.785 38.7109 97.4727 48H24C10.7695 48 0 58.7695 0 72V472C0 485.23 10.7695 496 24 496H312C325.23 496 336 485.23 336 472V404.785L362.289 417.93C370.031 421.793 378.688 423.832 387.328 423.832H472C485.23 423.832 496 413.062 496 399.832C496 393.664 493.594 388.09 489.762 383.832C493.602 379.574 496 374 496 367.832C496 361.664 493.594 356.09 489.762 351.832C493.602 347.574 496 342 496 335.832C496 329.664 493.594 324.09 489.762 319.832V319.832ZM112 56C112 51.5859 115.594 48 120 48H144V40C144 26.7695 154.77 16 168 16C181.23 16 192 26.7695 192 40V48H216C220.406 48 224 51.5859 224 56V88C224 92.4141 220.406 96 216 96H120C115.594 96 112 92.4141 112 88V56ZM480 367.832C480 372.246 476.406 375.832 472 375.832H424C419.594 375.832 416 372.246 416 367.832C416 363.414 419.594 359.832 424 359.832H472C476.406 359.832 480 363.426 480 367.832ZM424 343.832C419.594 343.832 416 340.246 416 335.832C416 331.414 419.594 327.832 424 327.832H472C476.406 327.832 480 331.414 480 335.832C480 340.246 476.406 343.832 472 343.832H424ZM424 295.832H472C476.406 295.832 480 299.414 480 303.832C480 308.246 476.406 311.832 472 311.832H424C419.984 311.832 416.793 308.809 416.223 304.945C417.727 302.383 419.023 299.703 420.105 296.938C421.121 296.352 422.336 295.832 424 295.832V295.832ZM272 399.832H256V320H240V399.832H208V287.832H240V304H256V287.832H272V399.832ZM369.441 403.617L329.887 383.832H288V303.832H321.16C332.098 303.832 343.055 301.246 352.855 296.352C377 284.281 392 260 392 233V201.199C401.312 204.504 408 213.398 408 223.832V276.664C408 290.633 400.559 303.777 388.574 310.961L371.879 320.977L380.113 334.695L396.801 324.68C399.801 322.879 402.512 320.734 405.078 318.441C405.449 318.922 405.824 319.383 406.23 319.832C402.391 324.09 399.992 329.664 399.992 335.832C399.992 342 402.398 347.574 406.23 351.832C402.391 356.09 399.992 361.664 399.992 367.832C399.992 374 402.398 379.574 406.23 383.832C402.391 388.09 399.992 393.664 399.992 399.832C399.992 402.648 400.566 405.32 401.465 407.832H387.32C381.16 407.832 374.969 406.375 369.441 403.617V403.617ZM472 407.832H424C419.594 407.832 416 404.246 416 399.832C416 395.414 419.594 391.832 424 391.832H472C476.406 391.832 480 395.414 480 399.832C480 404.246 476.406 407.832 472 407.832Z" fill="#000C78"/>
<path d="M64 416H80V432H64V416Z" fill="#000C78"/>
<path d="M96 416H176V432H96V416Z" fill="#000C78"/>
<path d="M64 384H80V400H64V384Z" fill="#000C78"/>
<path d="M96 384H176V400H96V384Z" fill="#000C78"/>
<path d="M64 352H80V368H64V352Z" fill="#000C78"/>
<path d="M96 352H176V368H96V352Z" fill="#000C78"/>
<path d="M64 320H80V336H64V320Z" fill="#000C78"/>
<path d="M96 320H176V336H96V320Z" fill="#000C78"/>
<path d="M64 288H80V304H64V288Z" fill="#000C78"/>
<path d="M96 288H176V304H96V288Z" fill="#000C78"/>
<path d="M64 240H272V256H64V240Z" fill="#000C78"/>
<path d="M128 64H144V80H128V64Z" fill="black"/>
<path d="M192 64H208V80H192V64Z" fill="black"/>
</g>
<defs>
<clipPath id="clip0">
<rect width="496" height="496" fill="white"/>
</clipPath>
</defs>
</svg>
