<svg width="496" height="496" viewBox="0 0 496 496" fill="none" xmlns="http://www.w3.org/2000/svg">
<path d="M280 250.938V232H320V160H249.352C248.543 165.23 248 170.543 248 176C248 205.465 260.312 232.016 280 250.938Z" fill="#F0BC5E"/>
<path d="M216 176C216 170.574 216.406 165.258 217.023 160H96V336H280V291.223C241.609 267.184 216 224.633 216 176V176Z" fill="#F0BC5E"/>
<path d="M320 77.0703C288.32 87.3125 263.313 112.32 253.07 144H320V77.0703Z" fill="#F0BC5E"/>
<path d="M320 43.9453V32H96V144H219.945C231.871 94.6406 270.641 55.8711 320 43.9453Z" fill="#F0BC5E"/>
<path d="M240 176C240 237.762 290.238 288 352 288C413.762 288 464 237.762 464 176C464 114.238 413.762 64 352 64C290.238 64 240 114.238 240 176ZM280.648 240H320V224H268.992C266.055 218.938 263.594 213.594 261.602 208H320V192H257.449C256.566 186.785 256 181.465 256 176H320V160H257.449C264.223 119.887 295.887 88.2148 336 81.4492V270.559C314.16 266.863 294.848 255.809 280.648 240V240ZM448 176C448 228.938 404.938 272 352 272V80C404.938 80 448 123.062 448 176Z" fill="#000C78"/>
<path d="M496 176C496 119.602 463.336 70.8164 416 47.1914V40C416 17.9453 398.055 0 376 0H104C81.9453 0 64 17.9453 64 40V352H0V392C0 414.055 17.9453 432 40 432H312V456C312 478.055 329.945 496 352 496C374.055 496 392 478.055 392 456V336H376V317.832C443.992 306.352 496 247.207 496 176V176ZM480 176C480 246.574 422.574 304 352 304C281.426 304 224 246.574 224 176C224 105.426 281.426 48 352 48C422.574 48 480 105.426 480 176ZM400 40V40.3984C385.398 35.2148 369.777 32.2305 353.449 32.0703C356.742 22.7422 365.559 16 376 16C389.23 16 400 26.7695 400 40ZM312 336V416C298.77 416 288 405.23 288 392V352H96V368H272V392C272 401.039 275.129 409.297 280.207 416H40C26.7695 416 16 405.23 16 392V368H80V40C80 26.7695 90.7695 16 104 16H344.207C340.512 20.8867 337.871 26.5664 336.727 32.832C269.754 39.9297 216.375 93.1211 208.945 160H128V176H208C208 181.414 208.359 186.734 208.945 192H96V208H211.711C212.961 213.465 214.551 218.793 216.406 224H96V240H223.191C243.375 280.457 281.969 310.063 328 317.832V336H312ZM376 456C376 469.23 365.23 480 352 480C338.77 480 328 469.23 328 456V352H376V456ZM360 336H344V319.594C346.664 319.742 349.297 320 352 320C354.703 320 357.336 319.742 360 319.594V336Z" fill="#000C78"/>
<path d="M96 160H112V176H96V160Z" fill="#000C78"/>
<path d="M96 256H216V272H96V256Z" fill="#000C78"/>
<path d="M96 288H232V304H96V288Z" fill="#000C78"/>
<path d="M264 320H280V336H264V320Z" fill="#000C78"/>
<path d="M96 320H248V336H96V320Z" fill="#000C78"/>
</svg>
