<svg height="512pt" viewBox="-31 0 512 512" width="512pt" xmlns="http://www.w3.org/2000/svg"><path d="m330 91-90 240-120 181h330v-421zm0 0" fill="#a3a3d1"/><path d="m120 422v90l210-90-114.375-30zm0 0" fill="#9292b7"/><path d="m0 0h330v422h-330zm0 0" fill="#f2f2fc"/><path d="m165 0h165v422h-165zm0 0" fill="#d8d8fc"/><path d="m60 211h90v30h-90zm0 0" fill="#d8d8fc"/><path d="m180 211h90v30h-90zm0 0" fill="#a3a3d1"/><path d="m60 271h90v30h-90zm0 0" fill="#d8d8fc"/><path d="m180 271h90v30h-90zm0 0" fill="#a3a3d1"/><path d="m60 331h90v30h-90zm0 0" fill="#d8d8fc"/><path d="m180 331h90v30h-90zm0 0" fill="#a3a3d1"/><path d="m60 61v120h210v-120zm0 0" fill="#4bb9ec"/><path d="m165 61h105v120h-105zm0 0" fill="#0095ff"/></svg>