<svg height="512pt" viewBox="0 0 512 512" width="512pt" xmlns="http://www.w3.org/2000/svg"><path d="m30 121h421v361h-421zm0 0" fill="#47568c"/><path d="m241 121h210v361h-210zm0 0" fill="#2c3b73"/><path d="m60 151h361v331h-361zm0 0" fill="#4bb9ec"/><path d="m241 151h180v331h-180zm0 0" fill="#0095ff"/><path d="m481 452v15c0 24.898438-20.097656 45-45 45h-391c-24.902344 0-45-20.101562-45-45v-15zm0 0" fill="#61729b"/><path d="m481 452v15c0 24.898438-20.097656 45-45 45h-195v-60zm0 0" fill="#47568c"/><path d="m391 0h121v90l-67.25 31-53.75-31-30-43.75zm0 0" fill="#47568c"/><path d="m391 0v90l-90 17.5-72.597656 13.5-137.402344-31v-90zm0 0" fill="#4bb9ec"/><path d="m391 0v90l-90 17.5v-107.5zm0 0" fill="#0095ff"/><path d="m91 90h421v271h-421zm0 0" fill="#f2f2fc"/><path d="m301 90h211v271h-211zm0 0" fill="#d8d8fc"/><path d="m271 241h-120v-90h120zm0 0" fill="#61729b"/><path d="m301 151h150v30h-150zm0 0" fill="#a3a3d1"/><path d="m301 211h150v30h-150zm0 0" fill="#a3a3d1"/><path d="m151 271h300v30h-300zm0 0" fill="#d8d8fc"/><path d="m301 271h150v30h-150zm0 0" fill="#a3a3d1"/><g fill="#f2f2fc"><path d="m121 30h30v30h-30zm0 0"/><path d="m181 30h30v30h-30zm0 0"/><path d="m241 30h30v30h-30zm0 0"/></g></svg>