<svg width="4074" height="1094" viewBox="0 0 4074 1094" fill="none" xmlns="http://www.w3.org/2000/svg">
<rect width="1094" height="1094" rx="100" fill="white"/>
<path d="M579.998 407.476C480.768 722.458 520.498 838.476 422.482 809.632C363.642 792.316 378.998 744.976 395.998 714.476" stroke="#061CA6" stroke-width="75"/>
<path d="M487.637 420.468C-81.0858 234.585 746.025 281.804 869.137 299.968" stroke="#061CA6" stroke-width="75"/>
<path d="M1701.45 447.086H1614.34V684H1555.75V447.086H1469.81V399.625H1701.45V447.086ZM1811.02 687.906C1780.03 687.906 1754.77 678.401 1735.24 659.391C1715.84 640.38 1706.14 615.055 1706.14 583.414V577.945C1706.14 556.721 1710.24 537.776 1718.45 521.109C1726.65 504.312 1738.24 491.422 1753.21 482.438C1768.32 473.323 1785.5 468.766 1804.77 468.766C1833.68 468.766 1856.4 477.88 1872.94 496.109C1889.6 514.339 1897.94 540.185 1897.94 573.648V596.695H1763.37C1765.19 610.497 1770.66 621.565 1779.77 629.898C1789.02 638.232 1800.67 642.398 1814.73 642.398C1836.48 642.398 1853.47 634.521 1865.71 618.766L1893.45 649.82C1884.98 661.799 1873.52 671.174 1859.07 677.945C1844.62 684.586 1828.6 687.906 1811.02 687.906ZM1804.58 514.469C1793.38 514.469 1784.27 518.245 1777.23 525.797C1770.33 533.349 1765.91 544.156 1763.95 558.219H1842.47V553.727C1842.21 541.227 1838.82 531.591 1832.31 524.82C1825.8 517.919 1816.56 514.469 1804.58 514.469ZM2012.98 606.07H1990.32V684H1933.88V472.672H1990.32V552.164H2010.44L2056.53 472.672H2127.82L2058.68 573.258L2134.27 684H2059.07L2012.98 606.07ZM2240.32 642.398C2250.74 642.398 2259.2 639.534 2265.71 633.805C2272.22 628.076 2275.61 620.458 2275.87 610.953H2328.8C2328.67 625.276 2324.76 638.427 2317.08 650.406C2309.4 662.255 2298.85 671.5 2285.44 678.141C2272.16 684.651 2257.44 687.906 2241.3 687.906C2211.09 687.906 2187.26 678.336 2169.81 659.195C2152.36 639.924 2143.64 613.362 2143.64 579.508V575.797C2143.64 543.245 2152.3 517.268 2169.62 497.867C2186.93 478.466 2210.7 468.766 2240.91 468.766C2267.34 468.766 2288.5 476.318 2304.38 491.422C2320.4 506.396 2328.54 526.383 2328.8 551.383H2275.87C2275.61 540.445 2272.22 531.591 2265.71 524.82C2259.2 517.919 2250.61 514.469 2239.93 514.469C2226.78 514.469 2216.82 519.286 2210.05 528.922C2203.41 538.427 2200.09 553.922 2200.09 575.406V581.266C2200.09 603.01 2203.41 618.635 2210.05 628.141C2216.69 637.646 2226.78 642.398 2240.32 642.398ZM2536.41 517.984H2468.64V684H2412V517.984H2345.4V472.672H2536.41V517.984ZM2550.28 576.383C2550.28 555.419 2554.32 536.734 2562.39 520.328C2570.46 503.922 2582.05 491.227 2597.16 482.242C2612.39 473.258 2630.03 468.766 2650.09 468.766C2678.6 468.766 2701.84 477.49 2719.81 494.938C2737.91 512.385 2748 536.083 2750.09 566.031L2750.48 580.484C2750.48 612.906 2741.43 638.948 2723.33 658.609C2705.23 678.141 2680.95 687.906 2650.48 687.906C2620.01 687.906 2595.66 678.141 2577.43 658.609C2559.33 639.078 2550.28 612.516 2550.28 578.922V576.383ZM2606.73 580.484C2606.73 600.536 2610.5 615.901 2618.05 626.578C2625.61 637.125 2636.41 642.398 2650.48 642.398C2664.15 642.398 2674.83 637.19 2682.51 626.773C2690.19 616.227 2694.03 599.43 2694.03 576.383C2694.03 556.721 2690.19 541.487 2682.51 530.68C2674.83 519.872 2664.02 514.469 2650.09 514.469C2636.28 514.469 2625.61 519.872 2618.05 530.68C2610.5 541.357 2606.73 557.958 2606.73 580.484ZM2975.48 580.289C2975.48 612.841 2968.05 638.948 2953.21 658.609C2938.5 678.141 2918.58 687.906 2893.45 687.906C2872.09 687.906 2854.84 680.484 2841.69 665.641V765.25H2785.24V472.672H2837.59L2839.54 493.375C2853.21 476.969 2871.05 468.766 2893.05 468.766C2919.1 468.766 2939.34 478.401 2953.8 497.672C2968.25 516.943 2975.48 543.505 2975.48 577.359V580.289ZM2919.03 576.188C2919.03 556.526 2915.52 541.357 2908.48 530.68C2901.58 520.003 2891.49 514.664 2878.21 514.664C2860.5 514.664 2848.33 521.435 2841.69 534.977V621.5C2848.59 635.432 2860.89 642.398 2878.6 642.398C2905.55 642.398 2919.03 620.328 2919.03 576.188ZM3137.98 472.672H3194.42V684H3137.98V553.531L3067.27 684H3010.63V472.672H3067.27V602.945L3137.98 472.672ZM3413.76 472.672V684H3357.51V610.953H3321.77L3281.14 684H3223.91L3270.01 601.383C3257.38 595.523 3247.61 587.581 3240.71 577.555C3233.94 567.529 3230.55 556.135 3230.55 543.375C3230.55 522.932 3238.43 506.201 3254.19 493.18C3270.07 480.029 3291.3 473.193 3317.86 472.672H3413.76ZM3318.84 571.5H3357.51V517.984H3320.79C3310.76 517.984 3302.62 520.654 3296.38 525.992C3290.12 531.201 3287 537.581 3287 545.133C3287 552.685 3289.99 558.935 3295.98 563.883C3301.97 568.831 3309.59 571.37 3318.84 571.5ZM3464.34 656.266C3464.34 647.281 3467.34 639.99 3473.33 634.391C3479.45 628.792 3487.07 625.992 3496.18 625.992C3505.42 625.992 3513.04 628.792 3519.03 634.391C3525.15 639.99 3528.21 647.281 3528.21 656.266C3528.21 665.12 3525.22 672.346 3519.23 677.945C3513.24 683.414 3505.55 686.148 3496.18 686.148C3486.93 686.148 3479.32 683.414 3473.33 677.945C3467.34 672.346 3464.34 665.12 3464.34 656.266ZM3768.05 580.289C3768.05 612.841 3760.63 638.948 3745.79 658.609C3731.08 678.141 3711.15 687.906 3686.02 687.906C3664.67 687.906 3647.42 680.484 3634.27 665.641V765.25H3577.82V472.672H3630.16L3632.12 493.375C3645.79 476.969 3663.63 468.766 3685.63 468.766C3711.67 468.766 3731.92 478.401 3746.38 497.672C3760.83 516.943 3768.05 543.505 3768.05 577.359V580.289ZM3711.61 576.188C3711.61 556.526 3708.09 541.357 3701.06 530.68C3694.16 520.003 3684.07 514.664 3670.79 514.664C3653.08 514.664 3640.91 521.435 3634.27 534.977V621.5C3641.17 635.432 3653.47 642.398 3671.18 642.398C3698.13 642.398 3711.61 620.328 3711.61 576.188ZM3794.81 579.898C3794.81 545.914 3801.71 518.896 3815.52 498.844C3829.45 478.792 3848.59 468.766 3872.94 468.766C3882.44 468.766 3891.1 470.654 3898.91 474.43V384H3955.36V474.625C3963.43 470.719 3972.35 468.766 3982.12 468.766C4006.6 468.766 4025.74 478.792 4039.54 498.844C4053.47 518.766 4060.44 547.151 4060.44 584C4060.44 615.901 4053.47 641.227 4039.54 659.977C4025.61 678.596 4006.6 687.906 3982.51 687.906C3972.48 687.906 3963.43 686.083 3955.36 682.438V765.25H3898.91V682.633C3891.1 686.148 3882.31 687.906 3872.55 687.906C3849.76 687.906 3831.47 679.378 3817.66 662.32C3803.86 645.263 3796.31 621.891 3795.01 592.203L3794.81 579.898ZM4003.8 579.898C4003.8 558.805 4000.61 542.659 3994.23 531.461C3987.85 520.133 3978.86 514.469 3967.27 514.469C3963.63 514.469 3959.66 514.924 3955.36 515.836V641.422C3959.01 642.203 3963.11 642.594 3967.66 642.594C3989.8 642.594 4001.78 625.797 4003.6 592.203L4003.8 579.898ZM3851.26 584C3851.26 622.932 3863.17 642.398 3887 642.398C3891.95 642.398 3895.92 642.073 3898.91 641.422V515.836C3894.62 514.924 3890.78 514.469 3887.39 514.469C3875.8 514.469 3866.88 520.003 3860.63 531.07C3854.38 542.008 3851.26 559.651 3851.26 584Z" fill="white"/>
</svg>
