<svg x="0" y="0" width="1500" height="1500" viewBox="0 0 1500 1500" xmlns="http://www.w3.org/2000/svg" xmlns:xlink="http://www.w3.org/1999/xlink" xmlns:fi="http://pattern.flaticon.com/"><rect x="0px" y="0px" width="100%" height="100%" opacity="0" fill="#000000"/><defs><g transform="matrix(0.125 0 0 0.125 12 57)" id="L1_0"><path d="m360 472h-320c-17.671875 0-32-14.328125-32-32v-32h320v32c-.011719 8.488281 3.355469 16.636719 9.359375 22.640625s14.152344 9.371094 22.640625 9.359375zm0 0" fill="#5aaae7"/><path d="m392 24v416c.011719 14.589844-9.867188 27.335938-24 30.960938-2.605469.714843-5.296875 1.0625-8 1.039062-8.488281.011719-16.636719-3.355469-22.640625-9.359375s-9.371094-14.152344-9.359375-22.640625v-32h-272v-384c.027344-8.824219 7.175781-15.972656 16-16h304c8.824219.027344 15.972656 7.175781 16 16zm0 0" fill="#96c8ef"/><path d="m344 8v80l-24-32-24 32v-80zm0 0" fill="#ff5023"/><g fill="#78b9eb"><path d="m320 56 8 10.640625-16 21.359375v-21.359375zm0 0"/><path d="m360 8v80l-16-21.359375v-58.640625zm0 0"/><path d="m368 470.960938c-2.605469.714843-5.296875 1.0625-8 1.039062-8.488281.011719-16.636719-3.355469-22.640625-9.359375s-9.371094-14.152344-9.359375-22.640625v-32h16v32c.015625 8.484375 3.378906 16.621094 9.359375 22.640625 4.070313 4.007813 9.117187 6.875 14.640625 8.320313zm0 0"/></g><path d="m376 0h-304c-13.253906 0-24 10.746094-24 24v376h-40c-4.417969 0-8 3.582031-8 8v32c.0273438 22.082031 17.917969 39.972656 40 40h320c22.082031-.027344 39.972656-17.917969 40-40v-416c0-13.253906-10.746094-24-24-24zm-72 16h32v48l-9.601562-12.800781c-1.574219-1.914063-3.921876-3.019531-6.398438-3.019531s-4.824219 1.105468-6.398438 3.019531l-9.601562 12.800781zm-264 448c-13.253906 0-24-10.746094-24-24v-24h304v24c-.015625 8.65625 2.792969 17.082031 8 24zm344-24c0 13.253906-10.746094 24-24 24s-24-10.746094-24-24v-32c0-4.417969-3.582031-8-8-8h-264v-376c0-4.417969 3.582031-8 8-8h216v72c0 3.445312 2.203125 6.5 5.46875 7.589844 3.269531 1.089844 6.863281-.035156 8.929688-2.789063l17.601562-23.464843 17.601562 23.464843c1.507813 2.011719 3.878907 3.199219 6.398438 3.199219.859375-.003906 1.710938-.140625 2.527344-.40625 3.269531-1.089844 5.472656-4.148438 5.472656-7.59375v-72h24c4.417969 0 8 3.582031 8 8zm0 0"/><path d="m96 128h96v16h-96zm0 0"/><path d="m208 128h32v16h-32zm0 0"/><path d="m256 128h96v16h-96zm0 0"/><path d="m96 160h48v16h-48zm0 0"/><path d="m160 160h48v16h-48zm0 0"/><path d="m224 160h128v16h-128zm0 0"/><path d="m96 192h96v16h-96zm0 0"/><path d="m208 192h48v16h-48zm0 0"/><path d="m272 192h48v16h-48zm0 0"/><path d="m336 192h16v16h-16zm0 0"/><path d="m96 224h256v16h-256zm0 0"/><path d="m96 256h48v16h-48zm0 0"/><path d="m160 256h112v16h-112zm0 0"/><path d="m288 256h64v16h-64zm0 0"/><path d="m96 288h16v16h-16zm0 0"/><path d="m128 288h80v16h-80zm0 0"/><path d="m224 288h128v16h-128zm0 0"/><path d="m96 320h176v16h-176zm0 0"/><path d="m288 320h64v16h-64zm0 0"/><path d="m96 352h256v16h-256zm0 0"/><path d="m96 80h88v16h-88zm0 0"/><path d="m96 48h16v16h-16zm0 0"/><path d="m128 48h56v16h-56zm0 0"/></g><g transform="matrix(0.125 0 0 0.125 183 230)" id="L1_4"><path d="m296 56h-272c-8.824219.027344-15.972656 7.175781-16 16v384c.027344 8.824219 7.175781 15.972656 16 16h272c8.824219-.027344 15.972656-7.175781 16-16v-384c-.027344-8.824219-7.175781-15.972656-16-16zm0 0" fill="#96c8ef"/><path d="m192 40h-112v64h160v-64zm0 0" fill="#ff9811"/><path d="m128 8h64v32h-64zm0 0" fill="#ffa733"/><path d="m240 56h16v48h-16zm0 0" fill="#78b9eb"/><path d="m296 48h-48v-8c0-4.417969-3.582031-8-8-8h-40v-24c0-4.417969-3.582031-8-8-8h-64c-4.417969 0-8 3.582031-8 8v24h-40c-4.417969 0-8 3.582031-8 8v8h-48c-13.253906 0-24 10.746094-24 24v384c0 13.253906 10.746094 24 24 24h272c13.253906 0 24-10.746094 24-24v-384c0-13.253906-10.746094-24-24-24zm-160-32h48v16h-48zm-48 32h144v48h-144zm216 408c0 4.417969-3.582031 8-8 8h-272c-4.417969 0-8-3.582031-8-8v-384c0-4.417969 3.582031-8 8-8h48v40c0 4.417969 3.582031 8 8 8h160c4.417969 0 8-3.582031 8-8v-40h48c4.417969 0 8 3.582031 8 8zm0 0"/><path d="m48 256h64v16h-64zm0 0"/><path d="m128 256h32v16h-32zm0 0"/><path d="m176 256h96v16h-96zm0 0"/><path d="m48 288h48v16h-48zm0 0"/><path d="m112 288h16v16h-16zm0 0"/><path d="m144 288h128v16h-128zm0 0"/><path d="m48 320h64v16h-64zm0 0"/><path d="m128 320h96v16h-96zm0 0"/><path d="m240 320h32v16h-32zm0 0"/><path d="m48 352h224v16h-224zm0 0"/><path d="m48 384h48v16h-48zm0 0"/><path d="m112 384h128v16h-128zm0 0"/><path d="m256 384h16v16h-16zm0 0"/><path d="m48 416h16v16h-16zm0 0"/><path d="m80 416h48v16h-48zm0 0"/><path d="m144 416h128v16h-128zm0 0"/><path d="m48 192h16v16h-16zm0 0"/><path d="m80 192h192v16h-192zm0 0"/><path d="m48 224h224v16h-224zm0 0"/><path d="m48 160h80v16h-80zm0 0"/><path d="m144 160h80v16h-80zm0 0"/><path d="m240 160h32v16h-32zm0 0"/><path d="m48 128h48v16h-48zm0 0"/><path d="m112 128h160v16h-160zm0 0"/></g></defs><g fi:class="KUsePattern" opacity="0.1"><pattern id="pattern_L1_0" width="350" height="350" patternUnits="userSpaceOnUse"><use xlink:href="#L1_0" x="-350" y="-350"/><use xlink:href="#L1_0" x="0" y="-350"/><use xlink:href="#L1_0" x="350" y="-350"/><use xlink:href="#L1_0" x="-350" y="0"/><use xlink:href="#L1_0" x="0" y="0"/><use xlink:href="#L1_0" x="350" y="0"/><use xlink:href="#L1_0" x="-350" y="350"/><use xlink:href="#L1_0" x="0" y="350"/><use xlink:href="#L1_0" x="350" y="350"/></pattern><rect x="0" y="0" width="100%" height="100%" fill="url(#pattern_L1_0)"/></g><g fi:class="KUsePattern" opacity="0.1"><pattern id="pattern_L1_4" width="350" height="350" patternUnits="userSpaceOnUse"><use xlink:href="#L1_4" x="-350" y="-350"/><use xlink:href="#L1_4" x="0" y="-350"/><use xlink:href="#L1_4" x="350" y="-350"/><use xlink:href="#L1_4" x="-350" y="0"/><use xlink:href="#L1_4" x="0" y="0"/><use xlink:href="#L1_4" x="350" y="0"/><use xlink:href="#L1_4" x="-350" y="350"/><use xlink:href="#L1_4" x="0" y="350"/><use xlink:href="#L1_4" x="350" y="350"/></pattern><rect x="0" y="0" width="100%" height="100%" fill="url(#pattern_L1_4)"/></g></svg>