<svg height="512pt" viewBox="0 0 512 512" width="512pt" xmlns="http://www.w3.org/2000/svg"><path d="m421 0v196h-330v-76l120-120zm0 0" fill="#f2f2fc"/><path d="m256 0h165v196h-165zm0 0" fill="#d8d8fc"/><path d="m15 196h61v30h-61zm0 0" fill="#47568c"/><path d="m512 451-38.5 31h-420.902344l-52.597656-31 61-210 48.601562-30h297.300782l44.097656 30zm0 0" fill="#ff641a"/><path d="m512 451-38.5 31h-217.5v-271h150.902344l44.097656 30zm0 0" fill="#f03800"/><path d="m211 0h-21.210938l-98.789062 98.789062v21.210938h120zm0 0" fill="#d8d8fc"/><path d="m91 361h30v30h-30zm0 0" fill="#f2f2fc"/><path d="m151 361h30v30h-30zm0 0" fill="#f2f2fc"/><path d="m211 361h30v30h-30zm0 0" fill="#f2f2fc"/><path d="m271 361h30v30h-30zm0 0" fill="#d8d8fc"/><path d="m331 361h30v30h-30zm0 0" fill="#d8d8fc"/><path d="m121 301h30v30h-30zm0 0" fill="#f2f2fc"/><path d="m181 301h30v30h-30zm0 0" fill="#f2f2fc"/><path d="m241 301h30v30h-30zm0 0" fill="#f2f2fc"/><g fill="#d8d8fc"><path d="m301 301h30v30h-30zm0 0"/><path d="m361 301h30v30h-30zm0 0"/><path d="m391 361h30v30h-30zm0 0"/><path d="m241 60h120v30h-120zm0 0"/><path d="m241 120h120v30h-120zm0 0"/></g><path d="m0 181h30v60h-30zm0 0" fill="#61729b"/><path d="m421 196h60v30h-60zm0 0" fill="#2c3b73"/><path d="m256 301h15v30h-15zm0 0" fill="#d8d8fc"/><path d="m256 60h105v30h-105zm0 0" fill="#a3a3d1"/><path d="m256 120h105v30h-105zm0 0" fill="#a3a3d1"/><path d="m0 451h512v61h-512zm0 0" fill="#61729b"/><path d="m256 451h256v61h-256zm0 0" fill="#47568c"/><path d="m61 181h390v60h-390zm0 0" fill="#61729b"/><path d="m256 181h195v60h-195zm0 0" fill="#47568c"/></svg>