<svg height="512pt" viewBox="0 0 512 512" width="512pt" xmlns="http://www.w3.org/2000/svg"><path d="m422 240v272h-422v-272l61-30h301zm0 0" fill="#f2f2fc"/><g fill="#d8d8fc"><path d="m422 240v272h-210v-302h150zm0 0"/><path d="m182 330h-121v-30h151zm0 0"/><path d="m61 360h301v30h-301zm0 0"/><path d="m61 420h301v30h-301zm0 0"/></g><path d="m212 360h150v30h-150zm0 0" fill="#a3a3d1"/><path d="m212 420h150v30h-150zm0 0" fill="#a3a3d1"/><path d="m0 150h422v90h-422zm0 0" fill="#4bb9ec"/><path d="m212 150h210v90h-210zm0 0" fill="#0095ff"/><path d="m512 42.429688-42.429688 42.421874h-42.421874v-42.421874l42.421874-42.429688zm0 0" fill="#f2f2fc"/><path d="m512 42.429688-42.429688 42.421874h-42.421874l63.640624-63.632812zm0 0" fill="#d8d8fc"/><path d="m469.574219 84.851562-42.425781 42.425782-41.15625 1.273437v-2.542969l-1.269532-41.15625 42.425782-42.425781zm0 0" fill="#61729b"/><path d="m469.574219 84.851562-42.425781 42.425782-41.15625 1.273437v-2.542969l62.367187-62.367187zm0 0" fill="#47568c"/><path d="m427.148438 127.277344-160.296876 160.296875-41.789062-.636719h-1.273438l.636719-41.789062 160.296875-160.296876zm0 0" fill="#ff641a"/><path d="m405.933594 106.066406 21.214844 21.210938-160.296876 160.296875-41.789062-.636719zm0 0" fill="#f03800"/><path d="m266.851562 287.574219-84.851562 42.425781 42.425781-84.851562zm0 0" fill="#ffcebf"/><path d="m245.640625 266.359375 21.210937 21.214844-84.851562 42.425781zm0 0" fill="#ffb99c"/><path d="m31 180h30v30h-30zm0 0" fill="#f2f2fc"/><path d="m92 180h30v30h-30zm0 0" fill="#f2f2fc"/><path d="m152 180h30v30h-30zm0 0" fill="#f2f2fc"/></svg>