<svg width="496" height="496" viewBox="0 0 496 496" fill="none" xmlns="http://www.w3.org/2000/svg">
<path d="M432 360C432 382.09 414.09 400 392 400C369.91 400 352 382.09 352 360C352 337.91 369.91 320 392 320C414.09 320 432 337.91 432 360Z" fill="#F0BC5E"/>
<path d="M288 376C288 398.09 270.09 416 248 416C225.91 416 208 398.09 208 376C208 353.91 225.91 336 248 336C270.09 336 288 353.91 288 376Z" fill="#F0BC5E"/>
<path d="M144 376C144 398.09 126.09 416 104 416C81.9102 416 64 398.09 64 376C64 353.91 81.9102 336 104 336C126.09 336 144 353.91 144 376Z" fill="#F0BC5E"/>
<path d="M368 312C368 334.09 350.09 352 328 352C305.91 352 288 334.09 288 312C288 289.91 305.91 272 328 272C350.09 272 368 289.91 368 312Z" fill="#F0BC5E"/>
<path d="M216 328C216 350.09 198.09 368 176 368C153.91 368 136 350.09 136 328C136 305.91 153.91 288 176 288C198.09 288 216 305.91 216 328Z" fill="#F0BC5E"/>
<path d="M208 288H80V176H208V288Z" fill="#F0BC5E"/>
<path d="M48 448H64V464H48V448Z" fill="#000C78"/>
<path d="M80 448H96V464H80V448Z" fill="#000C78"/>
<path d="M112 448H128V464H112V448Z" fill="#000C78"/>
<path d="M384 448H448V464H384V448Z" fill="#000C78"/>
<path d="M480 416V152C480 129.945 462.055 112 440 112H416C416 50.2383 365.762 0 304 0C242.238 0 192 50.2383 192 112H56C33.9453 112 16 129.945 16 152V416H0V456C0 478.055 17.9453 496 40 496H456C478.055 496 496 478.055 496 456V416H480ZM440 128C453.23 128 464 138.77 464 152V416H448V160C448 151.176 440.824 144 432 144H411.281C412.824 138.816 413.938 133.465 414.719 128H440ZM212.648 82.6016L297.559 117.984L326.633 205.191C319.359 206.961 311.809 208 304 208C251.062 208 208 164.938 208 112C208 101.742 209.656 91.8711 212.648 82.6016ZM341.832 200.199L313.152 114.16L377.23 50.0781C391.406 66.8086 400 88.4062 400 112C400 151.504 376 185.488 341.832 200.199ZM304 16C327.594 16 349.191 24.5938 365.93 38.7617L302.137 102.551L218.848 67.8555C234.855 37.0898 266.984 16 304 16ZM32 152C32 138.77 42.7695 128 56 128H193.281C194.062 133.465 195.168 138.816 196.719 144H64C55.1758 144 48 151.176 48 160V416H32V152ZM480 456C480 469.23 469.23 480 456 480H40C26.7695 480 16 469.23 16 456V432H180.816C192.32 442.344 207.039 448 222.633 448H273.375C288.969 448 303.688 442.344 315.191 432H416V416H308.688L306.344 418.344C297.535 427.152 285.832 432 273.367 432H222.625C210.168 432 198.457 427.152 189.648 418.344L187.312 416H64V160H202.961C220.984 197.777 259.434 224 304 224C348.566 224 387.016 197.777 405.039 160H432V432H480V456Z" fill="#000C78"/>
<path d="M392 336C387.09 336 382.52 337.496 378.711 340.039L350.801 319.113C351.512 316.848 352 314.488 352 312C352 298.77 341.23 288 328 288C314.77 288 304 298.77 304 312C304 314.754 304.559 317.359 305.414 319.824L260.609 355.672C256.938 353.383 252.641 352 248 352C242.617 352 237.695 353.848 233.688 356.848L199.191 333.848C199.672 331.969 200 330.031 200 328C200 314.77 189.23 304 176 304C162.77 304 152 314.77 152 328C152 330.031 152.328 331.969 152.809 333.848L118.312 356.848C114.305 353.84 109.383 352 104 352C90.7695 352 80 362.77 80 376C80 389.23 90.7695 400 104 400C117.23 400 128 389.23 128 376C128 373.969 127.672 372.031 127.191 370.152L161.688 347.152C165.695 350.16 170.617 352 176 352C181.383 352 186.305 350.16 190.312 347.152L224.809 370.152C224.328 372.031 224 373.977 224 376C224 389.23 234.77 400 248 400C261.23 400 272 389.23 272 376C272 373.246 271.441 370.641 270.586 368.176L315.391 332.328C319.062 334.617 323.359 336 328 336C332.91 336 337.48 334.504 341.289 331.961L369.199 352.887C368.488 355.152 368 357.512 368 360C368 373.23 378.77 384 392 384C405.23 384 416 373.23 416 360C416 346.77 405.23 336 392 336V336ZM104 384C99.5938 384 96 380.406 96 376C96 371.594 99.5938 368 104 368C108.406 368 112 371.594 112 376C112 380.406 108.406 384 104 384ZM176 336C171.594 336 168 332.406 168 328C168 323.594 171.594 320 176 320C180.406 320 184 323.594 184 328C184 332.406 180.406 336 176 336ZM248 384C243.594 384 240 380.406 240 376C240 371.594 243.594 368 248 368C252.406 368 256 371.594 256 376C256 380.406 252.406 384 248 384ZM328 320C323.594 320 320 316.406 320 312C320 307.594 323.594 304 328 304C332.406 304 336 307.594 336 312C336 316.406 332.406 320 328 320ZM392 368C387.594 368 384 364.406 384 360C384 355.594 387.594 352 392 352C396.406 352 400 355.594 400 360C400 364.406 396.406 368 392 368Z" fill="#000C78"/>
<path d="M112 208H176V224H112V208Z" fill="#000C78"/>
<path d="M112 240H176V256H112V240Z" fill="#000C78"/>
<path d="M224 256H240V272H224V256Z" fill="#000C78"/>
<path d="M256 256H416V272H256V256Z" fill="#000C78"/>
</svg>
