<svg xmlns="http://www.w3.org/2000/svg" width="4074" height="1094" fill="none"><rect width="1094" height="1094" rx="100" fill="#fff"/><path d="M579.998 407.476c-99.23 314.982-59.5 431-157.516 402.156-58.84-17.316-43.484-64.656-26.484-95.156m91.64-294.008c-568.723-185.883 258.388-138.664 381.5-120.5" stroke="#061ca6" stroke-width="75"/><path d="M1701.45 447.086h-87.1V684h-58.6V447.086h-85.94v-47.46h231.64v47.46zm109.57 240.82c-31 0-56.25-9.505-75.78-28.515-19.4-19.01-29.1-44.336-29.1-75.977v-5.47c0-21.224 4.1-40.17 12.3-56.836 8.2-16.797 19.8-29.687 34.76-38.67 15.1-9.115 32.3-13.672 51.56-13.672 28.9 0 51.63 9.114 68.17 27.343 16.66 18.23 25 44.076 25 77.54v23.047h-134.57c1.82 13.802 7.3 24.87 16.4 33.203 9.25 8.334 20.9 12.5 34.96 12.5 21.75 0 38.74-7.877 50.98-23.632l27.74 31.054c-8.47 11.98-19.93 21.354-34.38 28.125-14.45 6.64-30.47 9.96-48.05 9.96zm-6.44-173.437c-11.2 0-20.3 3.776-27.35 11.328-6.9 7.552-11.32 18.36-13.28 32.422h78.52v-4.492c-.26-12.5-3.65-22.136-10.16-28.907-6.5-6.9-15.75-10.35-27.73-10.35zm208.4 91.6h-22.66V684h-56.44V472.672h56.44v79.492h20.12l46.1-79.492h71.3l-69.14 100.586L2134.27 684h-75.2l-46.1-77.93zm227.34 36.328c10.42 0 18.88-2.864 25.4-8.593s9.9-13.347 10.16-22.852h52.93c-.13 14.323-4.04 27.474-11.72 39.453-7.68 11.85-18.23 21.094-31.64 27.735-13.28 6.5-28 9.765-44.14 9.765-30.2 0-54.04-9.57-71.5-28.71-17.45-19.27-26.17-45.833-26.17-79.687v-3.71c0-32.552 8.66-58.53 25.98-77.93 17.3-19.4 41.08-29.1 71.3-29.1 26.43 0 47.6 7.552 63.47 22.656 16.02 14.974 24.16 34.96 24.42 59.96h-52.93c-.26-10.938-3.65-19.792-10.16-26.563-6.5-6.9-15.1-10.35-25.78-10.35-13.15 0-23.1 4.817-29.88 14.453-6.64 9.505-9.96 25-9.96 46.484v5.86c0 21.744 3.32 37.37 9.96 46.875s16.73 14.257 30.27 14.257zm296.1-124.414h-67.77V684H2412V517.984h-66.6v-45.312h191v45.312zm13.87 58.4c0-20.964 4.04-39.65 12.1-56.055s19.66-29.1 34.77-38.086c15.23-8.984 32.87-13.476 52.93-13.476 28.5 0 51.75 8.724 69.72 26.172 18.1 17.447 28.2 41.145 30.28 71.093l.4 14.453c0 32.422-9.05 58.464-27.15 78.125-18.1 19.532-42.38 29.297-72.85 29.297s-54.82-9.765-73.05-29.297c-18.1-19.53-27.15-46.093-27.15-79.687v-2.54zm56.45 4.1c0 20.052 3.77 35.417 11.32 46.094 7.56 10.547 18.36 15.82 32.43 15.82 13.67 0 24.35-5.208 32.03-15.625 7.68-10.546 11.52-27.343 11.52-50.4 0-19.662-3.84-34.896-11.52-45.703s-18.5-16.21-32.42-16.21c-13.8 0-24.48 5.403-32.04 16.21-7.55 10.677-11.32 27.278-11.32 49.804zm368.75-.195c0 32.552-7.43 58.66-22.27 78.32-14.7 19.532-34.63 29.297-59.76 29.297-21.36 0-38.6-7.422-51.76-22.265v99.61h-56.45V472.672h52.35l1.95 20.703c13.67-16.406 31.5-24.61 53.5-24.61 26.05 0 46.3 9.635 60.75 28.906 14.45 19.27 21.68 45.833 21.68 79.687v2.93zm-56.45-4.1c0-19.662-3.5-34.83-10.55-45.508-6.9-10.677-17-16.016-30.27-16.016-17.7 0-29.88 6.77-36.52 20.313V621.5c6.9 13.932 19.2 20.898 36.9 20.898 26.95 0 40.43-22.07 40.43-66.2zm218.95-103.516h56.44V684h-56.44V553.53L3067.27 684h-56.64V472.672h56.64v130.273l70.7-130.273zm275.78 0V684h-56.25v-73.047h-35.74L3281.14 684h-57.23l46.1-82.617c-12.63-5.86-22.4-13.802-29.3-23.828-6.77-10.026-10.16-21.42-10.16-34.18 0-20.443 7.88-37.174 23.64-50.195 15.88-13.15 37.1-19.987 63.67-20.508h95.9zm-94.92 98.828h38.67v-53.516h-36.72c-10.03 0-18.17 2.67-24.4 8.008-6.26 5.21-9.38 11.59-9.38 19.14s3 13.802 8.98 18.75 13.6 7.487 22.86 7.617zm145.5 84.766c0-8.985 3-16.276 9-21.875 6.12-5.6 13.74-8.4 22.85-8.4 9.24 0 16.86 2.8 22.85 8.4 6.12 5.6 9.18 12.9 9.18 21.875 0 8.854-3 16.08-8.98 21.68-6 5.47-13.68 8.203-23.05 8.203-9.25 0-16.86-2.734-22.85-8.203-6-5.6-9-12.825-9-21.68zm303.7-75.977c0 32.552-7.42 58.66-22.26 78.32-14.7 19.532-34.64 29.297-59.77 29.297-21.35 0-38.6-7.422-51.75-22.265v99.61h-56.45V472.672h52.34l1.96 20.703c13.67-16.406 31.5-24.61 53.5-24.61 26.04 0 46.3 9.635 60.75 28.906 14.45 19.27 21.67 45.833 21.67 79.687v2.93zm-56.44-4.1c0-19.662-3.52-34.83-10.55-45.508-6.9-10.677-17-16.016-30.27-16.016-17.7 0-29.88 6.77-36.52 20.313V621.5c6.9 13.932 19.2 20.898 36.9 20.898 26.95 0 40.43-22.07 40.43-66.2zm83.2 3.7c0-33.984 6.9-61.002 20.7-81.054 13.93-20.052 33.07-30.078 57.42-30.078 9.5 0 18.16 1.888 25.97 5.664V384h56.45v90.625c8.07-3.906 17-5.86 26.76-5.86 24.48 0 43.62 10.026 57.42 30.078 13.93 19.922 20.9 48.307 20.9 85.156 0 31.9-6.97 57.227-20.9 75.977-13.93 18.62-32.94 27.93-57.03 27.93-10.03 0-19.08-1.823-27.15-5.468v82.812h-56.45v-82.617c-7.8 3.515-16.6 5.273-26.36 5.273-22.8 0-41.08-8.528-54.9-25.586-13.8-17.057-21.35-40.43-22.65-70.117l-.2-12.305zm209 0c0-21.093-3.2-37.24-9.57-48.437-6.38-11.328-15.37-16.992-26.96-16.992-3.64 0-7.6.455-11.9 1.367v125.586c3.65.78 7.75 1.172 12.3 1.172 22.14 0 34.12-16.797 35.94-50.39l.2-12.305zM3851.26 584c0 38.932 11.9 58.398 35.74 58.398 4.95 0 8.92-.325 11.9-.976V515.836c-4.3-.912-8.13-1.367-11.52-1.367-11.6 0-20.5 5.534-26.76 16.6-6.25 10.938-9.37 28.58-9.37 52.93z" fill="#fff"/></svg>