<svg xmlns="http://www.w3.org/2000/svg" xmlns:xlink="http://www.w3.org/1999/xlink" width="1500" height="1500"><path opacity="0" d="M0 0h1500v1500H0z"/><defs><g transform="matrix(.125 0 0 .125 12 57)" id="A"><path d="M360 472H40c-17.672 0-32-14.328-32-32v-32h320v32a31.96 31.96 0 0 0 32 32zm0 0" fill="#5aaae7"/><path d="M392 24v416a31.94 31.94 0 0 1-24 30.961 29.27 29.27 0 0 1-8 1.039 31.96 31.96 0 0 1-32-32v-32H56V24c.027-8.824 7.176-15.973 16-16h304c8.824.027 15.973 7.176 16 16zm0 0" fill="#96c8ef"/><path d="M344 8v80l-24-32-24 32V8zm0 0" fill="#ff5023"/><path d="M320 56l8 10.64L312 88V66.64zm40-48v80l-16-21.36V8zm8 462.96a29.27 29.27 0 0 1-8 1.039 31.96 31.96 0 0 1-32-32v-32h16v32a32.21 32.21 0 0 0 9.359 22.641A32.64 32.64 0 0 0 368 470.96zm0 0" fill="#78b9eb"/><path d="M376 0H72C58.746 0 48 10.746 48 24v376H8a8 8 0 0 0-8 8v32c.027 22.082 17.918 39.973 40 40h320c22.082-.027 39.973-17.918 40-40V24c0-13.254-10.746-24-24-24zm-72 16h32v48l-9.602-12.8a8.28 8.28 0 0 0-12.797 0L304 64zM40 464c-13.254 0-24-10.746-24-24v-24h304v24a39.79 39.79 0 0 0 8 24zm344-24c0 13.254-10.746 24-24 24s-24-10.746-24-24v-32a8 8 0 0 0-8-8H64V24a8 8 0 0 1 8-8h216v72a8 8 0 0 0 14.398 4.801L320 69.336 337.602 92.8A8 8 0 0 0 344 96c.86-.004 1.7-.14 2.527-.406 3.27-1.1 5.473-4.148 5.473-7.594V16h24a8 8 0 0 1 8 8zM96 128h96v16H96zm0 0"/><path d="M208 128h32v16h-32zm48 0h96v16h-96zM96 160h48v16H96zm64 0h48v16h-48zm0 0"/><path d="M224 160h128v16H224zM96 192h96v16H96zm112 0h48v16h-48zm64 0h48v16h-48zm0 0"/><path d="M336 192h16v16h-16zM96 224h256v16H96zm0 32h48v16H96zm64 0h112v16H160zm0 0"/><path d="M288 256h64v16h-64zM96 288h16v16H96zm0 0"/><path d="M128 288h80v16h-80zm96 0h128v16H224zM96 320h176v16H96zm192 0h64v16h-64zM96 352h256v16H96zm0-272h88v16H96zm0-32h16v16H96zm32 0h56v16h-56zm0 0"/></g><g id="B"><path d="M220 237h-34c-1.103.003-1.997.897-2 2v48c.003 1.103.897 1.997 2 2h34c1.103-.003 1.997-.897 2-2v-48c-.003-1.103-.897-1.997-2-2zm0 0" fill="#96c8ef"/><path d="M207 235h-14v8h20v-8zm0 0" fill="#ff9811"/><path d="M199 231h8v4h-8zm0 0" fill="#ffa733"/><path d="M213 237h2v6h-2zm0 0" fill="#78b9eb"/><path d="M220 236h-6v-1a1 1 0 0 0-1-1h-5v-3a1 1 0 0 0-1-1h-8a1 1 0 0 0-1 1v3h-5a1 1 0 0 0-1 1v1h-6a3 3 0 0 0-3 3v48a3 3 0 0 0 3 3h34a3 3 0 0 0 3-3v-48a3 3 0 0 0-3-3zm-20-4h6v2h-6zm-6 4h18v6h-18zm27 51a1 1 0 0 1-1 1h-34a1 1 0 0 1-1-1v-48a1 1 0 0 1 1-1h6v5a1 1 0 0 0 1 1h20a1 1 0 0 0 1-1v-5h6a1 1 0 0 1 1 1zm-32-25h8v2h-8zm0 0"/><path d="M199 262h4v2h-4zm6 0h12v2h-12zm-16 4h6v2h-6zm8 0h2v2h-2zm0 0"/><path d="M201 266h16v2h-16zm-12 4h8v2h-8zm10 0h12v2h-12zm14 0h4v2h-4zm-24 4h28v2h-28zm0 4h6v2h-6zm8 0h16v2h-16zm18 0h2v2h-2zm0 0"/><path d="M189 282h2v2h-2zm4 0h6v2h-6zm8 0h16v2h-16zm-12-28h2v2h-2zm0 0"/><path d="M193 254h24v2h-24zm-4 4h28v2h-28zm0-8h10v2h-10zm12 0h10v2h-10zm12 0h4v2h-4zm-24-4h6v2h-6zm8 0h20v2h-20zm0 0"/></g></defs><g opacity=".1"><pattern id="C" width="350" height="350" patternUnits="userSpaceOnUse"><use xlink:href="#A" x="-350" y="-350"/><use xlink:href="#A" y="-350"/><use xlink:href="#A" x="350" y="-350"/><use xlink:href="#A" x="-350"/><use xlink:href="#A"/><use xlink:href="#A" x="350"/><use xlink:href="#A" x="-350" y="350"/><use xlink:href="#A" y="350"/><use xlink:href="#A" x="350" y="350"/></pattern><path fill="url(#C)" d="M0 0h1500v1500H0z"/></g><g opacity=".1"><pattern id="D" width="350" height="350" patternUnits="userSpaceOnUse"><use xlink:href="#B" x="-350" y="-350"/><use xlink:href="#B" y="-350"/><use xlink:href="#B" x="350" y="-350"/><use xlink:href="#B" x="-350"/><use xlink:href="#B"/><use xlink:href="#B" x="350"/><use xlink:href="#B" x="-350" y="350"/><use xlink:href="#B" y="350"/><use xlink:href="#B" x="350" y="350"/></pattern><path fill="url(#D)" d="M0 0h1500v1500H0z"/></g></svg>