<svg width="613" height="590" viewBox="0 0 613 590" fill="none" xmlns="http://www.w3.org/2000/svg">
<path d="M110.511 196.362C37.5 110.5 218.126 -110.211 288.5 69.5182C390.5 330.018 432.885 37.5845 507 115.018C540.5 150.018 659.747 507.585 531.5 489.773C459.5 479.773 500.116 418.844 412.897 561.752C364.696 640.728 298.781 530.261 192.905 489.773C87.0286 449.285 36.6473 495.475 8.34228 455.784C-41.9182 385.305 167.321 263.172 110.511 196.362Z" fill="#9AC2FF"/>
<g filter="url(#filter0_d)">
<path d="M368.867 410.133H360.375L244.17 127.925C242.195 123.132 237.52 120 232.332 120C229.796 120.001 227.317 120.754 225.21 122.165C223.102 123.576 221.461 125.581 220.494 127.925L104.292 410.133H95.8C88.73 410.133 83 415.866 83 422.933C83 430 88.73 435.733 95.8 435.733H129.933C137.003 435.733 142.733 430 142.733 422.933C142.733 416.539 138.029 411.283 131.9 410.331L156.577 350.399H265.42L290.098 410.331C283.968 411.281 279.265 416.539 279.265 422.933C279.265 430 284.995 435.733 292.065 435.733H368.865C375.935 435.733 381.665 430 381.665 422.933C381.665 415.866 375.937 410.133 368.865 410.133H368.867ZM167.117 324.8L211 218.231L254.882 324.801H167.118L167.117 324.8Z" fill="#FFDC69"/>
</g>
<g filter="url(#filter1_d)">
<path d="M591.999 410.199H583.466C581.112 410.199 579.199 408.282 579.199 405.932V303.533C579.199 263.543 546.661 231 506.666 231H472.533C432.537 231 400 263.542 400 303.533C400 310.6 405.73 316.333 412.8 316.333H446.933C454.003 316.333 459.733 310.6 459.733 303.533C459.733 283.675 470.841 256.6 489.6 256.6C508.359 256.6 519.467 283.675 519.467 303.533V311.433C506.597 315.535 493.879 317.733 481.517 319.749C455.787 323.941 431.484 327.899 413.9 349.332C400.263 365.949 396.938 387.166 405.23 404.69C414.58 424.466 436 435.8 464 435.8H481.067C496.265 435.8 510.544 432.142 525.943 424.276C531.416 431.238 539.813 435.8 549.333 435.8H591.999C599.069 435.8 604.799 430.067 604.799 423C604.799 415.933 599.069 410.2 591.999 410.2V410.199ZM519.466 398.715C505.652 406.62 493.596 410.2 481.066 410.2C469.532 410.2 464.408 402.54 462.376 397.975C458.514 389.285 458.656 376.035 467.686 366.025C479.029 353.445 499.862 345.548 519.469 339.378L519.468 398.716L519.466 398.715Z" fill="#FF6469"/>
</g>
<defs>
<filter id="filter0_d" x="83" y="120" width="306.665" height="323.733" filterUnits="userSpaceOnUse" color-interpolation-filters="sRGB">
<feFlood flood-opacity="0" result="BackgroundImageFix"/>
<feColorMatrix in="SourceAlpha" type="matrix" values="0 0 0 0 0 0 0 0 0 0 0 0 0 0 0 0 0 0 127 0"/>
<feOffset dx="4" dy="4"/>
<feGaussianBlur stdDeviation="2"/>
<feColorMatrix type="matrix" values="0 0 0 0 0 0 0 0 0 0 0 0 0 0 0 0 0 0 0.25 0"/>
<feBlend mode="normal" in2="BackgroundImageFix" result="effect1_dropShadow"/>
<feBlend mode="normal" in="SourceGraphic" in2="effect1_dropShadow" result="shape"/>
</filter>
<filter id="filter1_d" x="400" y="231" width="212.799" height="212.8" filterUnits="userSpaceOnUse" color-interpolation-filters="sRGB">
<feFlood flood-opacity="0" result="BackgroundImageFix"/>
<feColorMatrix in="SourceAlpha" type="matrix" values="0 0 0 0 0 0 0 0 0 0 0 0 0 0 0 0 0 0 127 0"/>
<feOffset dx="4" dy="4"/>
<feGaussianBlur stdDeviation="2"/>
<feColorMatrix type="matrix" values="0 0 0 0 0 0 0 0 0 0 0 0 0 0 0 0 0 0 0.25 0"/>
<feBlend mode="normal" in2="BackgroundImageFix" result="effect1_dropShadow"/>
<feBlend mode="normal" in="SourceGraphic" in2="effect1_dropShadow" result="shape"/>
</filter>
</defs>
</svg>
