<svg xmlns="http://www.w3.org/2000/svg" viewBox="0 0 512 512"><path d="M499.2 388.266h-8.533c-2.354 0-4.267-1.917-4.267-4.267V281.6c0-39.99-32.538-72.533-72.533-72.533h-34.133c-39.996 0-72.533 32.542-72.533 72.533 0 7.067 5.73 12.8 12.8 12.8h34.133c7.07 0 12.8-5.733 12.8-12.8 0-19.858 11.108-46.933 29.867-46.933s29.867 27.075 29.867 46.933v7.9c-12.87 4.102-25.588 6.3-37.95 8.316-25.73 4.192-50.033 8.15-67.617 29.583-13.637 16.617-16.962 37.834-8.67 55.358 9.35 19.776 30.77 31.11 58.77 31.11h17.067c15.198 0 29.477-3.658 44.876-11.524 5.473 6.962 13.87 11.524 23.39 11.524H499.2c7.07 0 12.8-5.733 12.8-12.8s-5.73-12.8-12.8-12.8zm-72.533-11.484c-13.814 7.905-25.87 11.485-38.4 11.485-11.534 0-16.658-7.66-18.69-12.225-3.862-8.69-3.72-21.94 5.31-31.95 11.343-12.58 32.176-20.477 51.783-26.647l-.001 59.338z" fill="#ff6469"/><path d="M285.867 388.266h-8.492L161.17 106.058c-1.975-4.793-6.65-7.925-11.838-7.925a12.81 12.81 0 0 0-11.838 7.925L21.292 388.266H12.8c-7.07 0-12.8 5.733-12.8 12.8s5.73 12.8 12.8 12.8h34.133c7.07 0 12.8-5.733 12.8-12.8 0-6.394-4.704-11.65-10.833-12.602l24.677-59.932H182.42l24.678 59.932c-6.13.95-10.833 6.208-10.833 12.602 0 7.067 5.73 12.8 12.8 12.8h76.8c7.07 0 12.8-5.733 12.8-12.8s-5.728-12.8-12.8-12.8zm-201.75-85.333L128 196.364l43.882 106.57H84.118z" fill="#ffdc69"/></svg>